<?xml version="1.0" encoding="UTF-8" standalone="no"?>
<!-- Created with Inkscape (http://www.inkscape.org/) -->

<svg
   xmlns:dc="http://purl.org/dc/elements/1.1/"
   xmlns:cc="http://creativecommons.org/ns#"
   xmlns:rdf="http://www.w3.org/1999/02/22-rdf-syntax-ns#"
   xmlns:svg="http://www.w3.org/2000/svg"
   xmlns="http://www.w3.org/2000/svg"
   xmlns:xlink="http://www.w3.org/1999/xlink"
   xmlns:sodipodi="http://sodipodi.sourceforge.net/DTD/sodipodi-0.dtd"
   xmlns:inkscape="http://www.inkscape.org/namespaces/inkscape"
   sodipodi:docname="theory.svg"
   inkscape:version="0.48.0 r9654"
   version="1.1"
   id="svg4767"
   height="1052.3622"
   width="283.46457">
  <sodipodi:namedview
     id="base"
     pagecolor="#ffffff"
     bordercolor="#666666"
     borderopacity="1.0"
     inkscape:pageopacity="0.0"
     inkscape:pageshadow="2"
     inkscape:zoom="4.0000001"
     inkscape:cx="214.11272"
     inkscape:cy="623.69098"
     inkscape:document-units="px"
     inkscape:current-layer="layer1"
     showgrid="false"
     units="cm"
     inkscape:window-width="1920"
     inkscape:window-height="1028"
     inkscape:window-x="0"
     inkscape:window-y="25"
     inkscape:window-maximized="1" />
  <defs
     id="defs4769">
    <marker
       inkscape:stockid="Arrow2Mstart"
       orient="auto"
       refY="0.0"
       refX="0.0"
       id="Arrow2Mstart"
       style="overflow:visible">
      <path
         id="path5580"
         style="font-size:12.0;fill-rule:evenodd;stroke-width:0.62500000;stroke-linejoin:round"
         d="M 8.7185878,4.0337352 L -2.2072895,0.016013256 L 8.7185884,-4.0017078 C 6.9730900,-1.6296469 6.9831476,1.6157441 8.7185878,4.0337352 z "
         transform="scale(0.6) translate(0,0)" />
    </marker>
    <marker
       inkscape:stockid="Arrow2Mend"
       orient="auto"
       refY="0.0"
       refX="0.0"
       id="Arrow2Mend"
       style="overflow:visible;">
      <path
         id="path5583"
         style="font-size:12.0;fill-rule:evenodd;stroke-width:0.62500000;stroke-linejoin:round;"
         d="M 8.7185878,4.0337352 L -2.2072895,0.016013256 L 8.7185884,-4.0017078 C 6.9730900,-1.6296469 6.9831476,1.6157441 8.7185878,4.0337352 z "
         transform="scale(0.6) rotate(180) translate(0,0)" />
    </marker>
  </defs>
  <metadata
     id="metadata4772">
    <rdf:RDF>
      <cc:Work
         rdf:about="">
        <dc:format>image/svg+xml</dc:format>
        <dc:type
           rdf:resource="http://purl.org/dc/dcmitype/StillImage" />
        <dc:title />
      </cc:Work>
    </rdf:RDF>
  </metadata>
  <g
     inkscape:label="Layer 1"
     inkscape:groupmode="layer"
     id="layer1"
     transform="translate(0,0.00130762)">
    <text
       xml:space="preserve"
       style="font-size:12px;font-style:normal;font-variant:normal;font-weight:normal;font-stretch:normal;line-height:125%;letter-spacing:0px;word-spacing:0px;fill:#000000;fill-opacity:1;stroke:none;font-family:cmr10;-inkscape-font-specification:cmr10"
       x="137.14287"
       y="166.28944"
       id="text4777"
       sodipodi:linespacing="125%"><tspan
         sodipodi:role="line"
         id="tspan4779"
         x="137.14287"
         y="166.28944">E</tspan></text>
    <text
       xml:space="preserve"
       style="font-size:12px;font-style:normal;font-variant:normal;font-weight:normal;font-stretch:normal;line-height:125%;letter-spacing:0px;word-spacing:0px;fill:#000000;fill-opacity:1;stroke:none;font-family:cmr10;-inkscape-font-specification:cmr10"
       x="7.0815811"
       y="99.756264"
       id="text4781"
       sodipodi:linespacing="125%"><tspan
         sodipodi:role="line"
         id="tspan4783"
         x="7.0815811"
         y="99.756264">N(E)</tspan></text>
    <path
       style="color:#000000;fill:none;stroke:#00ff00;stroke-width:1;stroke-linecap:butt;stroke-linejoin:miter;stroke-miterlimit:4;stroke-opacity:1;stroke-dasharray:none;stroke-dashoffset:0;marker:none;visibility:visible;display:inline;overflow:visible;enable-background:accumulate"
       d="m 37.879464,154.10326 c 36.785714,0 46.015903,-74.598222 76.763396,-74.598222 32.85714,10e-7 50.94866,74.910712 139.87723,74.553572"
       id="path6185"
       inkscape:connector-curvature="0"
       transform="translate(0,-0.00130762)"
       sodipodi:nodetypes="csc" />
    <path
       style="color:#000000;fill:none;stroke:#0000ff;stroke-width:1;stroke-linecap:butt;stroke-linejoin:miter;stroke-miterlimit:4;stroke-opacity:1;stroke-dasharray:none;stroke-dashoffset:0;marker:none;visibility:visible;display:inline;overflow:visible;enable-background:accumulate"
       d="M 37.857143,153.79075 C 45.357143,154.1479 40,55.576467 45,55.576467 c 5,0 -1.689089,97.918103 2.723214,96.473213 13.455062,-4.4061 26.320811,-28.90788 49.419643,-29.33036 24.051473,-0.43991 91.328123,30.72545 157.399553,31.43974"
       id="path6187"
       inkscape:connector-curvature="0"
       transform="translate(0,-0.00130762)"
       sodipodi:nodetypes="csssc" />
    <g
       id="g6205"
       transform="matrix(0.55586352,0,0,0.55586352,-12.653639,-281.49071)"
       style="fill:#0000ff">
      <g
         id="content"
         transform="matrix(0.40494939,0,0,-0.40494939,-70.866142,789.27165)"
         xml:space="preserve"
         stroke-miterlimit="10.433"
         font-style="normal"
         font-variant="normal"
         font-weight="normal"
         font-stretch="normal"
         font-size-adjust="none"
         letter-spacing="normal"
         word-spacing="normal"
         style="font-style:normal;font-variant:normal;font-weight:normal;font-stretch:normal;letter-spacing:normal;word-spacing:normal;text-anchor:start;fill:#0000ff;stroke:#000000;stroke-width:1.79900276999999997;stroke-linecap:butt;stroke-linejoin:miter;stroke-miterlimit:10.43299960999999954;stroke-opacity:1;stroke-dasharray:none;stroke-dashoffset:0"><path
           d="m 477.27,436.24 0.03,0.13 0.03,0.12 0.03,0.11 0.03,0.11 0.03,0.11 0.03,0.09 0.03,0.1 0.03,0.08 0.03,0.09 0.03,0.07 0.03,0.08 0.03,0.06 0.03,0.07 0.03,0.06 0.03,0.05 0.03,0.06 0.03,0.04 0.03,0.05 0.04,0.04 0.03,0.04 0.04,0.03 0.03,0.04 0.04,0.03 0.04,0.02 0.04,0.03 0.05,0.02 0.04,0.02 0.05,0.02 0.05,0.02 0.05,0.02 0.05,0.01 0.05,0.02 c 0.45,0.1 2.1,0.1 3.14,0.1 5.04,0 7.28,-0.2 7.28,-4.09 0,-0.74 -0.2,-2.68 -0.4,-3.98 -0.05,-0.2 -0.15,-0.8 -0.15,-0.95 0,-0.3 0.15,-0.64 0.6,-0.64 0.55,0 0.64,0.39 0.74,1.14 l 1.35,8.67 c 0.05,0.2 0.1,0.7 0.1,0.85 0,0.54 -0.5,0.54 -1.35,0.54 h -27.64 c -1.2,0 -1.25,-0.05 -1.6,-0.99 l -2.98,-8.77 c -0.05,-0.1 -0.3,-0.8 -0.3,-0.9 0,-0.29 0.25,-0.54 0.59,-0.54 0.5,0 0.55,0.25 0.85,1.04 2.69,7.72 3.98,8.62 11.36,8.62 h 1.94 c 1.4,0 1.4,-0.2 1.4,-0.6 0,-0.3 -0.16,-0.9 -0.2,-1.04 l -6.68,-26.61 c -0.45,-1.84 -0.6,-2.39 -5.93,-2.39 -1.79,0 -2.09,0 -2.09,-0.94 0,-0.6 0.55,-0.6 0.85,-0.6 1.34,0 2.74,0.1 4.08,0.1 h 8.37 c 1.44,0 2.94,-0.1 4.33,-0.1 0.5,0 1.1,0 1.1,1 0,0.54 -0.4,0.54 -1.69,0.54 -1.25,0 -1.89,0 -3.19,0.1 -1.45,0.15 -1.84,0.3 -1.84,1.1 0,0.05 0,0.3 0.19,1.05 z"
           id="path6208"
           inkscape:connector-curvature="0"
           style="fill:#0000ff;stroke-width:0" /><path
           d="m 538.62,430.81 0.06,0.03 0.05,0.02 0.06,0.03 0.05,0.03 0.05,0.03 0.04,0.02 0.05,0.03 0.04,0.03 0.05,0.03 0.04,0.02 0.04,0.03 0.04,0.03 0.03,0.03 0.04,0.03 0.03,0.03 0.03,0.03 0.03,0.03 0.03,0.04 0.02,0.03 0.03,0.03 0.02,0.04 0.02,0.04 0.02,0.03 0.02,0.04 0.01,0.04 0.01,0.04 0.01,0.05 0.01,0.04 0.01,0.05 0.01,0.04 0,0.05 0,0.05 c 0,0.55 -0.45,1 -1,1 -0.14,0 -0.25,0 -0.89,-0.35 l -27.6,-13 c -0.55,-0.25 -0.95,-0.5 -0.95,-1.1 0,-0.59 0.4,-0.84 0.95,-1.09 l 27.6,-13 c 0.64,-0.35 0.75,-0.35 0.89,-0.35 0.55,0 1,0.45 1,0.99 0,0.55 -0.35,0.8 -0.95,1.1 l -26.15,12.35 z"
           id="path6210"
           inkscape:connector-curvature="0"
           style="fill:#0000ff;stroke-width:0" /><path
           d="m 579.27,436.24 0.03,0.13 0.03,0.12 0.03,0.11 0.03,0.11 0.03,0.11 0.03,0.09 0.03,0.1 0.03,0.08 0.03,0.09 0.03,0.07 0.03,0.08 0.03,0.06 0.03,0.07 0.03,0.06 0.03,0.05 0.03,0.06 0.03,0.04 0.03,0.05 0.04,0.04 0.03,0.04 0.04,0.03 0.03,0.04 0.04,0.03 0.04,0.02 0.04,0.03 0.05,0.02 0.04,0.02 0.05,0.02 0.05,0.02 0.05,0.02 0.05,0.01 0.05,0.02 c 0.45,0.1 2.1,0.1 3.14,0.1 5.04,0 7.28,-0.2 7.28,-4.09 0,-0.74 -0.2,-2.68 -0.4,-3.98 -0.05,-0.2 -0.15,-0.8 -0.15,-0.95 0,-0.3 0.15,-0.64 0.6,-0.64 0.55,0 0.64,0.39 0.74,1.14 l 1.35,8.67 c 0.05,0.2 0.1,0.7 0.1,0.85 0,0.54 -0.5,0.54 -1.35,0.54 h -27.64 c -1.2,0 -1.25,-0.05 -1.6,-0.99 l -2.98,-8.77 c -0.05,-0.1 -0.3,-0.8 -0.3,-0.9 0,-0.29 0.25,-0.54 0.59,-0.54 0.5,0 0.55,0.25 0.85,1.04 2.69,7.72 3.98,8.62 11.36,8.62 h 1.94 c 1.4,0 1.4,-0.2 1.4,-0.6 0,-0.3 -0.16,-0.9 -0.2,-1.04 l -6.68,-26.61 c -0.45,-1.84 -0.6,-2.39 -5.93,-2.39 -1.79,0 -2.09,0 -2.09,-0.94 0,-0.6 0.55,-0.6 0.85,-0.6 1.34,0 2.74,0.1 4.08,0.1 h 8.37 c 1.44,0 2.94,-0.1 4.33,-0.1 0.5,0 1.1,0 1.1,1 0,0.54 -0.4,0.54 -1.69,0.54 -1.25,0 -1.89,0 -3.19,0.1 -1.45,0.15 -1.84,0.3 -1.84,1.1 0,0.05 0,0.3 0.2,1.05 z"
           id="path6212"
           inkscape:connector-curvature="0"
           style="fill:#0000ff;stroke-width:0" /><path
           d="m 593.62,401.72 -0.02,-0.11 -0.03,-0.1 -0.03,-0.1 -0.03,-0.09 -0.02,-0.09 -0.03,-0.09 -0.04,-0.07 -0.03,-0.08 -0.03,-0.07 -0.04,-0.07 -0.05,-0.06 -0.05,-0.05 -0.05,-0.06 -0.06,-0.05 -0.06,-0.04 -0.07,-0.05 -0.08,-0.04 -0.08,-0.03 -0.09,-0.04 -0.1,-0.02 -0.11,-0.03 -0.06,-0.01 -0.06,-0.01 -0.07,-0.02 -0.06,-0.01 -0.07,0 -0.07,-0.01 -0.08,-0.01 -0.08,-0.01 -0.08,-0.01 -0.08,0 -0.08,-0.01 -0.09,0 -0.1,-0.01 -0.09,0 -0.1,-0.01 -0.1,0 -0.11,0 -0.11,0 -0.11,0 -0.12,-0.01 -0.12,0 -0.12,0 c -0.59,0 -1.05,0 -1.05,-0.73 0,-0.52 0.42,-0.52 1.05,-0.52 h 13.49 c 5.86,0 10.36,4.01 10.36,7.46 0,2.48 -2.27,4.61 -5.96,4.99 4.21,0.76 7.73,3.42 7.73,6.41 0,2.66 -2.68,4.96 -7.21,4.96 l -0.56,-1.26 c 3.56,0 4.36,-2.34 4.36,-3.66 0,-2.83 -3.18,-6.03 -7.85,-6.03 h -5.72 l -0.24,-0.98 h 7.39 c 3.28,0 4.54,-2.16 4.54,-4.18 0,-3.46 -3.53,-6.46 -7.74,-6.46 h -5.62 c -1.08,0 -1.12,0.04 -1.12,0.36 0,0.03 0,0.2 0.14,0.73 l 2.41,9.55 0.24,0.98 2.13,8.51 c 0.28,1.08 0.32,1.18 1.78,1.18 h 5.3 l 0.56,1.26 h -12.7 c -0.66,0 -1.11,0 -1.11,-0.77 0,-0.49 0.42,-0.49 1.11,-0.49 0.04,0 0.7,0 1.33,-0.07 0.73,-0.07 0.8,-0.14 0.8,-0.49 0,-0.07 0,-0.24 -0.14,-0.77 z"
           id="path6214"
           inkscape:connector-curvature="0"
           style="fill:#0000ff;stroke-width:0" /></g>    </g>
    <g
       id="g6258"
       transform="matrix(0.55586352,0,0,0.55586352,79.270243,-256.2369)"
       style="fill:#00ff00">
      <g
         word-spacing="normal"
         letter-spacing="normal"
         font-size-adjust="none"
         font-stretch="normal"
         font-weight="normal"
         font-variant="normal"
         font-style="normal"
         stroke-miterlimit="10.433"
         xml:space="preserve"
         transform="matrix(0.40494939,0,0,-0.40494939,-70.866142,789.27165)"
         id="g6260"
         style="font-style:normal;font-variant:normal;font-weight:normal;font-stretch:normal;letter-spacing:normal;word-spacing:normal;text-anchor:start;fill:#00ff00;stroke:#000000;stroke-width:1.79900276999999997;stroke-linecap:butt;stroke-linejoin:miter;stroke-miterlimit:10.43299960999999954;stroke-opacity:1;stroke-dasharray:none;stroke-dashoffset:0"><path
           id="path6262"
           d="m 477.27,436.24 0.03,0.13 0.03,0.12 0.03,0.11 0.03,0.11 0.03,0.11 0.03,0.09 0.03,0.1 0.03,0.08 0.03,0.09 0.03,0.07 0.03,0.08 0.03,0.06 0.03,0.07 0.03,0.06 0.03,0.05 0.03,0.06 0.03,0.04 0.03,0.05 0.04,0.04 0.03,0.04 0.04,0.03 0.03,0.04 0.04,0.03 0.04,0.02 0.04,0.03 0.05,0.02 0.04,0.02 0.05,0.02 0.05,0.02 0.05,0.02 0.05,0.01 0.05,0.02 c 0.45,0.1 2.1,0.1 3.14,0.1 5.04,0 7.28,-0.2 7.28,-4.09 0,-0.74 -0.2,-2.68 -0.4,-3.98 -0.05,-0.2 -0.15,-0.8 -0.15,-0.95 0,-0.3 0.15,-0.64 0.6,-0.64 0.55,0 0.64,0.39 0.74,1.14 l 1.35,8.67 c 0.05,0.2 0.1,0.7 0.1,0.85 0,0.54 -0.5,0.54 -1.35,0.54 h -27.64 c -1.2,0 -1.25,-0.05 -1.6,-0.99 l -2.98,-8.77 c -0.05,-0.1 -0.3,-0.8 -0.3,-0.9 0,-0.29 0.25,-0.54 0.59,-0.54 0.5,0 0.55,0.25 0.85,1.04 2.69,7.72 3.98,8.62 11.36,8.62 h 1.94 c 1.4,0 1.4,-0.2 1.4,-0.6 0,-0.3 -0.16,-0.9 -0.2,-1.04 l -6.68,-26.61 c -0.45,-1.84 -0.6,-2.39 -5.93,-2.39 -1.79,0 -2.09,0 -2.09,-0.94 0,-0.6 0.55,-0.6 0.85,-0.6 1.34,0 2.74,0.1 4.08,0.1 h 8.37 c 1.44,0 2.94,-0.1 4.33,-0.1 0.5,0 1.1,0 1.1,1 0,0.54 -0.4,0.54 -1.69,0.54 -1.25,0 -1.89,0 -3.19,0.1 -1.45,0.15 -1.84,0.3 -1.84,1.1 0,0.05 0,0.3 0.19,1.05 z"
           inkscape:connector-curvature="0"
           style="fill:#00ff00;stroke-width:0" /><path
           id="path6264"
           d="m 538.62,417.36 0.11,0.04 0.09,0.05 0.05,0.02 0.05,0.03 0.04,0.02 0.04,0.03 0.05,0.02 0.04,0.03 0.04,0.03 0.03,0.02 0.04,0.03 0.04,0.03 0.03,0.03 0.03,0.03 0.03,0.04 0.03,0.03 0.03,0.03 0.03,0.04 0.02,0.04 0.02,0.03 0.02,0.04 0.02,0.04 0.02,0.05 0.01,0.04 0.01,0.05 0.01,0.04 0.01,0.05 0.01,0.05 0,0.06 0,0.05 c 0,0.6 -0.4,0.85 -0.95,1.1 l -27.59,13 c -0.65,0.35 -0.75,0.35 -0.9,0.35 -0.55,0 -1,-0.45 -1,-1 0,-0.45 0.25,-0.74 0.95,-1.09 l 26.15,-12.36 -26.15,-12.35 c -0.7,-0.35 -0.95,-0.65 -0.95,-1.1 0,-0.54 0.45,-0.99 1,-0.99 0.15,0 0.25,0 0.9,0.35 z"
           inkscape:connector-curvature="0"
           style="fill:#00ff00;stroke-width:0" /><path
           id="path6266"
           d="m 579.27,436.24 0.03,0.13 0.03,0.12 0.03,0.11 0.03,0.11 0.03,0.11 0.03,0.09 0.03,0.1 0.03,0.08 0.03,0.09 0.03,0.07 0.03,0.08 0.03,0.06 0.03,0.07 0.03,0.06 0.03,0.05 0.03,0.06 0.03,0.04 0.03,0.05 0.04,0.04 0.03,0.04 0.04,0.03 0.03,0.04 0.04,0.03 0.04,0.02 0.04,0.03 0.05,0.02 0.04,0.02 0.05,0.02 0.05,0.02 0.05,0.02 0.05,0.01 0.05,0.02 c 0.45,0.1 2.1,0.1 3.14,0.1 5.04,0 7.28,-0.2 7.28,-4.09 0,-0.74 -0.2,-2.68 -0.4,-3.98 -0.05,-0.2 -0.15,-0.8 -0.15,-0.95 0,-0.3 0.15,-0.64 0.6,-0.64 0.55,0 0.64,0.39 0.74,1.14 l 1.35,8.67 c 0.05,0.2 0.1,0.7 0.1,0.85 0,0.54 -0.5,0.54 -1.35,0.54 h -27.64 c -1.2,0 -1.25,-0.05 -1.6,-0.99 l -2.98,-8.77 c -0.05,-0.1 -0.3,-0.8 -0.3,-0.9 0,-0.29 0.25,-0.54 0.59,-0.54 0.5,0 0.55,0.25 0.85,1.04 2.69,7.72 3.98,8.62 11.36,8.62 h 1.94 c 1.4,0 1.4,-0.2 1.4,-0.6 0,-0.3 -0.16,-0.9 -0.2,-1.04 l -6.68,-26.61 c -0.45,-1.84 -0.6,-2.39 -5.93,-2.39 -1.79,0 -2.09,0 -2.09,-0.94 0,-0.6 0.55,-0.6 0.85,-0.6 1.34,0 2.74,0.1 4.08,0.1 h 8.37 c 1.44,0 2.94,-0.1 4.33,-0.1 0.5,0 1.1,0 1.1,1 0,0.54 -0.4,0.54 -1.69,0.54 -1.25,0 -1.89,0 -3.19,0.1 -1.45,0.15 -1.84,0.3 -1.84,1.1 0,0.05 0,0.3 0.2,1.05 z"
           inkscape:connector-curvature="0"
           style="fill:#00ff00;stroke-width:0" /><path
           id="path6268"
           d="m 593.62,401.72 -0.02,-0.11 -0.03,-0.1 -0.03,-0.1 -0.03,-0.09 -0.02,-0.09 -0.03,-0.09 -0.04,-0.07 -0.03,-0.08 -0.03,-0.07 -0.04,-0.07 -0.05,-0.06 -0.05,-0.05 -0.05,-0.06 -0.06,-0.05 -0.06,-0.04 -0.07,-0.05 -0.08,-0.04 -0.08,-0.03 -0.09,-0.04 -0.1,-0.02 -0.11,-0.03 -0.06,-0.01 -0.06,-0.01 -0.07,-0.02 -0.06,-0.01 -0.07,0 -0.07,-0.01 -0.08,-0.01 -0.08,-0.01 -0.08,-0.01 -0.08,0 -0.08,-0.01 -0.09,0 -0.1,-0.01 -0.09,0 -0.1,-0.01 -0.1,0 -0.11,0 -0.11,0 -0.11,0 -0.12,-0.01 -0.12,0 -0.12,0 c -0.59,0 -1.05,0 -1.05,-0.73 0,-0.52 0.42,-0.52 1.05,-0.52 h 13.49 c 5.86,0 10.36,4.01 10.36,7.46 0,2.48 -2.27,4.61 -5.96,4.99 4.21,0.76 7.73,3.42 7.73,6.41 0,2.66 -2.68,4.96 -7.21,4.96 l -0.56,-1.26 c 3.56,0 4.36,-2.34 4.36,-3.66 0,-2.83 -3.18,-6.03 -7.85,-6.03 h -5.72 l -0.24,-0.98 h 7.39 c 3.28,0 4.54,-2.16 4.54,-4.18 0,-3.46 -3.53,-6.46 -7.74,-6.46 h -5.62 c -1.08,0 -1.12,0.04 -1.12,0.36 0,0.03 0,0.2 0.14,0.73 l 2.41,9.55 0.24,0.98 2.13,8.51 c 0.28,1.08 0.32,1.18 1.78,1.18 h 5.3 l 0.56,1.26 h -12.7 c -0.66,0 -1.11,0 -1.11,-0.77 0,-0.49 0.42,-0.49 1.11,-0.49 0.04,0 0.7,0 1.33,-0.07 0.73,-0.07 0.8,-0.14 0.8,-0.49 0,-0.07 0,-0.24 -0.14,-0.77 z"
           inkscape:connector-curvature="0"
           style="fill:#00ff00;stroke-width:0" /></g>    </g>
    <text
       xml:space="preserve"
       style="font-size:12px;font-style:normal;font-variant:normal;font-weight:normal;font-stretch:normal;line-height:125%;letter-spacing:0px;word-spacing:0px;fill:#000000;fill-opacity:1;stroke:none;font-family:cmr10;-inkscape-font-specification:cmr10"
       x="51.568542"
       y="77.890175"
       id="text6296"
       sodipodi:linespacing="125%"><tspan
         sodipodi:role="line"
         id="tspan6298"
         x="51.568542"
         y="77.890175">Everyting in ground state</tspan></text>
    <path
       style="color:#000000;fill:none;stroke:#000000;stroke-width:1;stroke-linecap:butt;stroke-linejoin:miter;stroke-miterlimit:4;stroke-opacity:1;stroke-dasharray:none;stroke-dashoffset:0;marker:none;visibility:visible;display:inline;overflow:visible;enable-background:accumulate;marker-end:url(#Arrow2Mend);marker-start:url(#Arrow2Mstart)"
       d="m 38.214286,50.219324 0,103.928576 220.357144,0"
       id="path4775"
       inkscape:connector-curvature="0"
       transform="translate(0,-0.00130762)" />
    <path
       inkscape:connector-curvature="0"
       id="path6300"
       d="m 38.214286,208.81197 0,103.92857 220.357144,0"
       style="color:#000000;fill:none;stroke:#000000;stroke-width:1;stroke-linecap:butt;stroke-linejoin:miter;stroke-miterlimit:4;stroke-opacity:1;stroke-dasharray:none;stroke-dashoffset:0;marker:none;marker-start:url(#Arrow2Mstart);marker-end:url(#Arrow2Mend);visibility:visible;display:inline;overflow:visible;enable-background:accumulate" />
    <path
       style="color:#000000;fill:none;stroke:#000000;stroke-width:1;stroke-linecap:butt;stroke-linejoin:miter;stroke-miterlimit:4;stroke-opacity:1;stroke-dasharray:none;stroke-dashoffset:0;marker:none;visibility:visible;display:inline;overflow:visible;enable-background:accumulate"
       d="m 37.88072,225.29979 c 100.17598,0 198.49498,-0.31489 198.49498,87.63073"
       id="path6302"
       inkscape:connector-curvature="0"
       transform="translate(0,-0.00130762)"
       sodipodi:nodetypes="cc" />
    <path
       sodipodi:nodetypes="cc"
       inkscape:connector-curvature="0"
       id="path6304"
       d="m 37.88072,312.6868 c 100.17598,0 198.49498,0.31489 198.49498,-87.63073"
       style="color:#000000;fill:none;stroke:#000000;stroke-width:1;stroke-linecap:butt;stroke-linejoin:miter;stroke-miterlimit:4;stroke-opacity:1;stroke-dasharray:none;stroke-dashoffset:0;marker:none;visibility:visible;display:inline;overflow:visible;enable-background:accumulate" />
    <text
       xml:space="preserve"
       style="font-size:12px;font-style:normal;font-variant:normal;font-weight:normal;font-stretch:normal;line-height:125%;letter-spacing:0px;word-spacing:0px;writing-mode:lr-tb;fill:#000000;fill-opacity:1;stroke:none;font-family:cmr10;-inkscape-font-specification:cmr10"
       id="text6310"
       sodipodi:linespacing="125%"><textPath
         xlink:href="#path6302"
         id="textPath6314"
         style="line-height:125%"
         dy="-3.45">        gentle curve          steeper</textPath></text>
    <text
       xml:space="preserve"
       style="font-size:12px;font-style:normal;font-variant:normal;font-weight:normal;font-stretch:normal;line-height:125%;letter-spacing:0px;word-spacing:0px;fill:#000000;fill-opacity:1;stroke:none;font-family:cmr10;-inkscape-font-specification:cmr10"
       x="29.510637"
       y="230.60178"
       id="text6317"
       sodipodi:linespacing="125%"><tspan
         sodipodi:role="line"
         id="tspan6319"
         x="29.510637"
         y="230.60178">1</tspan></text>
    <text
       xml:space="preserve"
       style="font-size:12px;font-style:normal;font-variant:normal;font-weight:normal;font-stretch:normal;line-height:125%;letter-spacing:0px;word-spacing:0px;fill:#000000;fill-opacity:1;stroke:none;font-family:cmr10;-inkscape-font-specification:cmr10"
       x="19.842669"
       y="272.01801"
       id="text6321"
       sodipodi:linespacing="125%"><tspan
         sodipodi:role="line"
         id="tspan6323"
         x="19.842669"
         y="272.01801">0.5</tspan></text>
    <text
       xml:space="preserve"
       style="font-size:12px;font-style:normal;font-variant:normal;font-weight:normal;font-stretch:normal;line-height:125%;letter-spacing:0px;word-spacing:0px;fill:#000000;fill-opacity:1;stroke:none;font-family:cmr10;-inkscape-font-specification:cmr10"
       x="29.041887"
       y="313.43427"
       id="text6325"
       sodipodi:linespacing="125%"><tspan
         sodipodi:role="line"
         id="tspan6327"
         x="29.041887"
         y="313.43427">0</tspan></text>
    <path
       style="color:#000000;fill:none;stroke:#000000;stroke-width:1;stroke-linecap:butt;stroke-linejoin:miter;stroke-miterlimit:4;stroke-opacity:1;stroke-dasharray:1,2;stroke-dashoffset:0;marker:none;visibility:visible;display:inline;overflow:visible;enable-background:accumulate"
       d="m 236.24943,313.05679 c 0,-2.14658 0,-100.0051 0,-100.0051"
       id="path6329"
       inkscape:connector-curvature="0"
       transform="translate(0,-0.00130762)" />
    <path
       style="color:#000000;fill:none;stroke:#000000;stroke-width:1;stroke-linecap:butt;stroke-linejoin:miter;stroke-miterlimit:4;stroke-opacity:1;stroke-dasharray:none;stroke-dashoffset:0;marker:none;visibility:visible;display:inline;overflow:visible;enable-background:accumulate"
       d="m 236.25,225.57647 29.19643,0"
       id="path6331"
       inkscape:connector-curvature="0"
       transform="translate(0,-0.00130762)" />
    <path
       style="color:#000000;fill:none;stroke:#000000;stroke-width:1;stroke-linecap:butt;stroke-linejoin:miter;stroke-miterlimit:4;stroke-opacity:1;stroke-dasharray:1,2;stroke-dashoffset:0;marker:none;visibility:visible;display:inline;overflow:visible;enable-background:accumulate"
       d="m 241.679,268.98888 -203.040665,0"
       id="path6352"
       inkscape:connector-curvature="0"
       transform="translate(0,-0.00130762)"
       sodipodi:nodetypes="cc" />
    <g
       transform="matrix(0,-0.59008137,0.59008137,0,-356.20894,347.13534)"
       id="g6398">
      <g
         style="font-style:normal;font-variant:normal;font-weight:normal;font-stretch:normal;letter-spacing:normal;word-spacing:normal;text-anchor:start;fill:none;stroke:#000000;stroke-width:1.69468164;stroke-linecap:butt;stroke-linejoin:miter;stroke-miterlimit:10.43299961;stroke-opacity:1;stroke-dasharray:none;stroke-dashoffset:0"
         id="g6400"
         transform="matrix(0.40494939,0,0,-0.40494939,-70.866142,789.27165)"
         xml:space="preserve"
         stroke-miterlimit="10.433"
         font-style="normal"
         font-variant="normal"
         font-weight="normal"
         font-stretch="normal"
         font-size-adjust="none"
         letter-spacing="normal"
         word-spacing="normal"><path
           style="fill:#000000;stroke-width:0"
           inkscape:connector-curvature="0"
           d="m 457.64,397.38 0,-0.02 -0.01,-0.03 0,-0.03 -0.01,-0.02 -0.01,-0.03 0,-0.02 -0.01,-0.03 0,-0.02 -0.01,-0.02 0,-0.02 -0.01,-0.02 0,-0.02 -0.01,-0.02 0,-0.02 -0.01,-0.04 -0.01,-0.03 -0.01,-0.04 0,-0.03 -0.01,-0.03 0,-0.02 -0.01,-0.03 0,-0.02 -0.01,-0.02 0,-0.02 0,-0.02 0,-0.02 -0.01,-0.02 0,-0.01 0,-0.02 0,-0.01 0,-0.01 0,-0.01 0,-0.02 0,-0.02 0,-0.02 0,-0.01 c 0,-0.75 0.54,-1.35 1.39,-1.35 1.04,0 1.64,0.9 1.74,1.05 0.25,0.44 1.85,7.12 3.19,12.5 1,-1.99 2.59,-3.34 4.93,-3.34 l -0.05,1.1 c -3.49,0 -4.28,3.98 -4.28,4.43 0,0.2 0.25,1.2 0.4,1.84 1.39,5.58 1.89,7.38 2.98,9.37 2.15,3.63 4.64,4.73 6.18,4.73 1.84,0 3.44,-1.44 3.44,-4.88 0,-2.74 -1.44,-8.32 -2.79,-10.76 -1.65,-3.14 -4.04,-4.73 -5.93,-4.73 h 0 l 0.05,-1.1 c 5.83,0 12.26,7.03 12.26,14.45 0,5.28 -3.29,8.12 -6.93,8.12 -4.83,0 -10.06,-4.98 -11.55,-11.06 z"
           id="path6402" /><path
           style="fill:#000000;stroke-width:0"
           inkscape:connector-curvature="0"
           d="m 496.03,412.11 -0.09,-0.02 -0.08,-0.03 -0.08,-0.02 -0.08,-0.03 -0.07,-0.03 -0.07,-0.04 -0.08,-0.04 -0.06,-0.04 -0.07,-0.04 -0.06,-0.04 -0.07,-0.05 -0.05,-0.05 -0.06,-0.05 -0.06,-0.05 -0.05,-0.05 -0.05,-0.06 -0.04,-0.05 -0.04,-0.06 -0.05,-0.06 -0.03,-0.06 -0.04,-0.06 -0.03,-0.06 -0.03,-0.06 -0.03,-0.07 -0.02,-0.06 -0.02,-0.07 -0.02,-0.06 -0.01,-0.07 -0.01,-0.06 -0.01,-0.07 -0.01,-0.06 0,-0.07 c 0,-0.8 0.7,-1.11 1.15,-1.11 0.35,0 1.68,0.21 1.68,1.98 0,2.27 -2.51,3.04 -4.64,3.04 -5.44,0 -6.41,-4.01 -6.41,-5.09 0,-1.29 0.73,-2.13 1.21,-2.55 0.91,-0.7 1.54,-0.84 3.95,-1.26 0.73,-0.13 2.96,-0.55 2.96,-2.3 0,-0.59 -0.39,-1.91 -1.85,-2.79 -1.36,-0.76 -3.07,-0.76 -3.49,-0.76 -1.39,0 -3.38,0.31 -4.18,1.46 1.15,0.14 1.92,1.01 1.92,1.99 0,0.87 -0.63,1.29 -1.36,1.29 -1.01,0 -2.02,-0.8 -2.02,-2.33 0,-2.1 2.23,-3.39 5.61,-3.39 6.41,0 7.6,4.39 7.6,5.76 0,3.2 -3.52,3.83 -4.81,4.07 -0.31,0.07 -1.18,0.22 -1.4,0.28 -1.28,0.25 -1.91,0.98 -1.91,1.75 0,0.8 0.63,1.74 1.39,2.23 0.94,0.59 2.16,0.66 2.75,0.66 0.74,0 2.55,-0.1 3.32,-1.29 z"
           id="path6404" /><path
           style="fill:#000000;stroke-width:0"
           inkscape:connector-curvature="0"
           d="m 524.87,441.47 0.01,0.03 0.01,0.03 0.01,0.03 0.01,0.02 0.01,0.03 0.01,0.03 0.02,0.05 0.02,0.05 0.01,0.05 0.02,0.04 0.01,0.04 0.01,0.04 0.02,0.04 0.01,0.04 0.01,0.03 0,0.03 0.01,0.03 0.01,0.03 0.01,0.03 0,0.02 0.01,0.03 0,0.02 0,0.02 0.01,0.02 0,0.01 0,0.02 0,0.01 0,0.02 0.01,0.01 0,0.01 0,0.01 0,0 0,0.01 0,0.01 0,0 c 0,0.55 -0.45,1 -1,1 -0.35,0 -0.7,-0.15 -0.85,-0.45 l -17.28,-47.47 c -0.25,-0.65 -0.25,-0.85 -0.25,-0.9 0,-0.54 0.45,-0.99 0.99,-0.99 0.65,0 0.8,0.34 1.1,1.19 z"
           id="path6406" /><path
           style="fill:#000000;stroke-width:0"
           inkscape:connector-curvature="0"
           d="m 529.65,397.38 -0.01,-0.02 -0.01,-0.03 0,-0.03 -0.01,-0.02 -0.01,-0.03 0,-0.02 -0.01,-0.03 0,-0.02 -0.01,-0.02 0,-0.02 -0.01,-0.02 0,-0.02 -0.01,-0.02 0,-0.02 -0.01,-0.04 -0.01,-0.03 -0.01,-0.04 0,-0.03 -0.01,-0.03 0,-0.02 -0.01,-0.03 0,-0.02 -0.01,-0.02 0,-0.02 0,-0.02 0,-0.02 -0.01,-0.02 0,-0.01 0,-0.02 0,-0.01 0,-0.01 0,-0.01 0,-0.02 0,-0.02 0,-0.02 0,-0.01 c 0,-0.75 0.54,-1.35 1.39,-1.35 1.04,0 1.64,0.9 1.74,1.05 0.25,0.44 1.85,7.12 3.19,12.5 1,-1.99 2.59,-3.34 4.93,-3.34 l -0.05,1.1 c -3.48,0 -4.28,3.98 -4.28,4.43 0,0.2 0.25,1.2 0.4,1.84 1.39,5.58 1.89,7.38 2.98,9.37 2.15,3.63 4.64,4.73 6.18,4.73 1.84,0 3.44,-1.44 3.44,-4.88 0,-2.74 -1.44,-8.32 -2.79,-10.76 -1.65,-3.14 -4.04,-4.73 -5.93,-4.73 h 0 l 0.05,-1.1 c 5.83,0 12.26,7.03 12.26,14.45 0,5.28 -3.29,8.12 -6.93,8.12 -4.83,0 -10.06,-4.98 -11.55,-11.06 z"
           id="path6408" /></g>    </g>
    <g
       transform="matrix(0.59008137,0,0,0.59008137,172.11623,-63.136517)"
       id="g6951">
      <g
         style="font-style:normal;font-variant:normal;font-weight:normal;font-stretch:normal;letter-spacing:normal;word-spacing:normal;text-anchor:start;fill:none;stroke:#000000;stroke-width:1.69468164;stroke-linecap:butt;stroke-linejoin:miter;stroke-miterlimit:10.43299961;stroke-opacity:1;stroke-dasharray:none;stroke-dashoffset:0"
         id="g6953"
         transform="matrix(0.40494939,0,0,-0.40494939,-70.866142,789.27165)"
         xml:space="preserve"
         stroke-miterlimit="10.433"
         font-style="normal"
         font-variant="normal"
         font-weight="normal"
         font-stretch="normal"
         font-size-adjust="none"
         letter-spacing="normal"
         word-spacing="normal"><path
           style="fill:#000000;stroke-width:0"
           inkscape:connector-curvature="0"
           d="m 457.64,397.38 0,-0.02 -0.01,-0.03 0,-0.03 -0.01,-0.02 -0.01,-0.03 0,-0.02 -0.01,-0.03 0,-0.02 -0.01,-0.02 0,-0.02 -0.01,-0.02 0,-0.02 -0.01,-0.02 0,-0.02 -0.01,-0.04 -0.01,-0.03 -0.01,-0.04 0,-0.03 -0.01,-0.03 0,-0.02 -0.01,-0.03 0,-0.02 -0.01,-0.02 0,-0.02 0,-0.02 0,-0.02 -0.01,-0.02 0,-0.01 0,-0.02 0,-0.01 0,-0.01 0,-0.01 0,-0.02 0,-0.02 0,-0.02 0,-0.01 c 0,-0.75 0.54,-1.35 1.39,-1.35 1.04,0 1.64,0.9 1.74,1.05 0.25,0.44 1.85,7.12 3.19,12.5 1,-1.99 2.59,-3.34 4.93,-3.34 l -0.05,1.1 c -3.49,0 -4.28,3.98 -4.28,4.43 0,0.2 0.25,1.2 0.4,1.84 1.39,5.58 1.89,7.38 2.98,9.37 2.15,3.63 4.64,4.73 6.18,4.73 1.84,0 3.44,-1.44 3.44,-4.88 0,-2.74 -1.44,-8.32 -2.79,-10.76 -1.65,-3.14 -4.04,-4.73 -5.93,-4.73 h 0 l 0.05,-1.1 c 5.83,0 12.26,7.03 12.26,14.45 0,5.28 -3.29,8.12 -6.93,8.12 -4.83,0 -10.06,-4.98 -11.55,-11.06 z"
           id="path6955" /><path
           style="fill:#000000;stroke-width:0"
           inkscape:connector-curvature="0"
           d="m 496.03,412.11 -0.09,-0.02 -0.08,-0.03 -0.08,-0.02 -0.08,-0.03 -0.07,-0.03 -0.07,-0.04 -0.08,-0.04 -0.06,-0.04 -0.07,-0.04 -0.06,-0.04 -0.07,-0.05 -0.05,-0.05 -0.06,-0.05 -0.06,-0.05 -0.05,-0.05 -0.05,-0.06 -0.04,-0.05 -0.04,-0.06 -0.05,-0.06 -0.03,-0.06 -0.04,-0.06 -0.03,-0.06 -0.03,-0.06 -0.03,-0.07 -0.02,-0.06 -0.02,-0.07 -0.02,-0.06 -0.01,-0.07 -0.01,-0.06 -0.01,-0.07 -0.01,-0.06 0,-0.07 c 0,-0.8 0.7,-1.11 1.15,-1.11 0.35,0 1.68,0.21 1.68,1.98 0,2.27 -2.51,3.04 -4.64,3.04 -5.44,0 -6.41,-4.01 -6.41,-5.09 0,-1.29 0.73,-2.13 1.21,-2.55 0.91,-0.7 1.54,-0.84 3.95,-1.26 0.73,-0.13 2.96,-0.55 2.96,-2.3 0,-0.59 -0.39,-1.91 -1.85,-2.79 -1.36,-0.76 -3.07,-0.76 -3.49,-0.76 -1.39,0 -3.38,0.31 -4.18,1.46 1.15,0.14 1.92,1.01 1.92,1.99 0,0.87 -0.63,1.29 -1.36,1.29 -1.01,0 -2.02,-0.8 -2.02,-2.33 0,-2.1 2.23,-3.39 5.61,-3.39 6.41,0 7.6,4.39 7.6,5.76 0,3.2 -3.52,3.83 -4.81,4.07 -0.31,0.07 -1.18,0.22 -1.4,0.28 -1.28,0.25 -1.91,0.98 -1.91,1.75 0,0.8 0.63,1.74 1.39,2.23 0.94,0.59 2.16,0.66 2.75,0.66 0.74,0 2.55,-0.1 3.32,-1.29 z"
           id="path6957" /></g>    </g>
    <g
       id="g6508"
       transform="matrix(0.59008137,0,0,0.59008137,51.655535,-133.34212)">
      <g
         word-spacing="normal"
         letter-spacing="normal"
         font-size-adjust="none"
         font-stretch="normal"
         font-weight="normal"
         font-variant="normal"
         font-style="normal"
         stroke-miterlimit="10.433"
         xml:space="preserve"
         transform="matrix(0.40494939,0,0,-0.40494939,-70.866142,789.27165)"
         id="g6510"
         style="font-style:normal;font-variant:normal;font-weight:normal;font-stretch:normal;letter-spacing:normal;word-spacing:normal;text-anchor:start;fill:none;stroke:#000000;stroke-width:1.69468164;stroke-linecap:butt;stroke-linejoin:miter;stroke-miterlimit:10.43299961;stroke-opacity:1;stroke-dasharray:none;stroke-dashoffset:0"><path
           id="path6512"
           d="m 457.64,397.38 0,-0.02 -0.01,-0.03 0,-0.03 -0.01,-0.02 -0.01,-0.03 0,-0.02 -0.01,-0.03 0,-0.02 -0.01,-0.02 0,-0.02 -0.01,-0.02 0,-0.02 -0.01,-0.02 0,-0.02 -0.01,-0.04 -0.01,-0.03 -0.01,-0.04 0,-0.03 -0.01,-0.03 0,-0.02 -0.01,-0.03 0,-0.02 -0.01,-0.02 0,-0.02 0,-0.02 0,-0.02 -0.01,-0.02 0,-0.01 0,-0.02 0,-0.01 0,-0.01 0,-0.01 0,-0.02 0,-0.02 0,-0.02 0,-0.01 c 0,-0.75 0.54,-1.35 1.39,-1.35 1.04,0 1.64,0.9 1.74,1.05 0.25,0.44 1.85,7.12 3.19,12.5 1,-1.99 2.59,-3.34 4.93,-3.34 l -0.05,1.1 c -3.49,0 -4.28,3.98 -4.28,4.43 0,0.2 0.25,1.2 0.4,1.84 1.39,5.58 1.89,7.38 2.98,9.37 2.15,3.63 4.64,4.73 6.18,4.73 1.84,0 3.44,-1.44 3.44,-4.88 0,-2.74 -1.44,-8.32 -2.79,-10.76 -1.65,-3.14 -4.04,-4.73 -5.93,-4.73 h 0 l 0.05,-1.1 c 5.83,0 12.26,7.03 12.26,14.45 0,5.28 -3.29,8.12 -6.93,8.12 -4.83,0 -10.06,-4.98 -11.55,-11.06 z"
           inkscape:connector-curvature="0"
           style="fill:#000000;stroke-width:0" /><path
           id="path6514"
           d="m 496.03,412.11 -0.09,-0.02 -0.08,-0.03 -0.08,-0.02 -0.08,-0.03 -0.07,-0.03 -0.07,-0.04 -0.08,-0.04 -0.06,-0.04 -0.07,-0.04 -0.06,-0.04 -0.07,-0.05 -0.05,-0.05 -0.06,-0.05 -0.06,-0.05 -0.05,-0.05 -0.05,-0.06 -0.04,-0.05 -0.04,-0.06 -0.05,-0.06 -0.03,-0.06 -0.04,-0.06 -0.03,-0.06 -0.03,-0.06 -0.03,-0.07 -0.02,-0.06 -0.02,-0.07 -0.02,-0.06 -0.01,-0.07 -0.01,-0.06 -0.01,-0.07 -0.01,-0.06 0,-0.07 c 0,-0.8 0.7,-1.11 1.15,-1.11 0.35,0 1.68,0.21 1.68,1.98 0,2.27 -2.51,3.04 -4.64,3.04 -5.44,0 -6.41,-4.01 -6.41,-5.09 0,-1.29 0.73,-2.13 1.21,-2.55 0.91,-0.7 1.54,-0.84 3.95,-1.26 0.73,-0.13 2.96,-0.55 2.96,-2.3 0,-0.59 -0.39,-1.91 -1.85,-2.79 -1.36,-0.76 -3.07,-0.76 -3.49,-0.76 -1.39,0 -3.38,0.31 -4.18,1.46 1.15,0.14 1.92,1.01 1.92,1.99 0,0.87 -0.63,1.29 -1.36,1.29 -1.01,0 -2.02,-0.8 -2.02,-2.33 0,-2.1 2.23,-3.39 5.61,-3.39 6.41,0 7.6,4.39 7.6,5.76 0,3.2 -3.52,3.83 -4.81,4.07 -0.31,0.07 -1.18,0.22 -1.4,0.28 -1.28,0.25 -1.91,0.98 -1.91,1.75 0,0.8 0.63,1.74 1.39,2.23 0.94,0.59 2.16,0.66 2.75,0.66 0.74,0 2.55,-0.1 3.32,-1.29 z"
           inkscape:connector-curvature="0"
           style="fill:#000000;stroke-width:0" /></g>    </g>
    <g
       id="g6943"
       transform="matrix(0.59008137,0,0,0.59008137,175.94145,-147.82038)">
      <g
         word-spacing="normal"
         letter-spacing="normal"
         font-size-adjust="none"
         font-stretch="normal"
         font-weight="normal"
         font-variant="normal"
         font-style="normal"
         stroke-miterlimit="10.433"
         xml:space="preserve"
         transform="matrix(0.40494939,0,0,-0.40494939,-70.866142,789.27165)"
         id="g6945"
         style="font-style:normal;font-variant:normal;font-weight:normal;font-stretch:normal;letter-spacing:normal;word-spacing:normal;text-anchor:start;fill:none;stroke:#000000;stroke-width:1.69468164;stroke-linecap:butt;stroke-linejoin:miter;stroke-miterlimit:10.43299961;stroke-opacity:1;stroke-dasharray:none;stroke-dashoffset:0"><path
           id="path6947"
           d="m 457.64,397.38 0,-0.02 -0.01,-0.03 0,-0.03 -0.01,-0.02 -0.01,-0.03 0,-0.02 -0.01,-0.03 0,-0.02 -0.01,-0.02 0,-0.02 -0.01,-0.02 0,-0.02 -0.01,-0.02 0,-0.02 -0.01,-0.04 -0.01,-0.03 -0.01,-0.04 0,-0.03 -0.01,-0.03 0,-0.02 -0.01,-0.03 0,-0.02 -0.01,-0.02 0,-0.02 0,-0.02 0,-0.02 -0.01,-0.02 0,-0.01 0,-0.02 0,-0.01 0,-0.01 0,-0.01 0,-0.02 0,-0.02 0,-0.02 0,-0.01 c 0,-0.75 0.54,-1.35 1.39,-1.35 1.04,0 1.64,0.9 1.74,1.05 0.25,0.44 1.85,7.12 3.19,12.5 1,-1.99 2.59,-3.34 4.93,-3.34 l -0.05,1.1 c -3.49,0 -4.28,3.98 -4.28,4.43 0,0.2 0.25,1.2 0.4,1.84 1.39,5.58 1.89,7.38 2.98,9.37 2.15,3.63 4.64,4.73 6.18,4.73 1.84,0 3.44,-1.44 3.44,-4.88 0,-2.74 -1.44,-8.32 -2.79,-10.76 -1.65,-3.14 -4.04,-4.73 -5.93,-4.73 h 0 l 0.05,-1.1 c 5.83,0 12.26,7.03 12.26,14.45 0,5.28 -3.29,8.12 -6.93,8.12 -4.83,0 -10.06,-4.98 -11.55,-11.06 z"
           inkscape:connector-curvature="0"
           style="fill:#000000;stroke-width:0" /><path
           id="path6949"
           d="m 485.25,401.2 -0.01,-0.05 -0.01,-0.04 -0.02,-0.05 -0.01,-0.05 -0.02,-0.05 -0.01,-0.06 -0.02,-0.05 -0.01,-0.05 -0.03,-0.12 -0.03,-0.11 -0.03,-0.11 -0.02,-0.11 -0.02,-0.05 -0.01,-0.06 -0.01,-0.05 -0.01,-0.05 -0.01,-0.04 -0.01,-0.05 -0.01,-0.04 -0.01,-0.04 -0.01,-0.04 0,-0.03 -0.01,-0.03 0,-0.03 -0.01,-0.03 0,-0.02 0,0 0,-0.01 0,-0.01 0,0 c 0,-0.77 0.62,-1.12 1.18,-1.12 0.63,0 1.19,0.46 1.36,0.77 0.17,0.31 0.45,1.43 0.63,2.16 0.17,0.66 0.56,2.27 0.76,3.14 0.21,0.76 0.43,1.53 0.6,2.33 0.38,1.43 0.45,1.71 1.46,3.14 0.98,1.4 2.62,3.21 5.23,3.21 2.03,0 2.06,-1.78 2.06,-2.44 0,-2.09 -1.5,-5.96 -2.06,-7.43 -0.38,-0.97 -0.52,-1.29 -0.52,-1.88 0,-1.85 1.53,-3 3.31,-3 3.49,0 5.03,4.81 5.03,5.33 0,0.46 -0.46,0.46 -0.56,0.46 -0.49,0 -0.53,-0.21 -0.67,-0.59 -0.8,-2.79 -2.3,-4.22 -3.69,-4.22 -0.73,0 -0.87,0.49 -0.87,1.22 0,0.8 0.17,1.25 0.8,2.82 0.42,1.08 1.84,4.78 1.84,6.73 0,3.39 -2.68,3.98 -4.53,3.98 -2.89,0 -4.84,-1.78 -5.89,-3.18 -0.24,2.41 -2.3,3.18 -3.73,3.18 -1.5,0 -2.3,-1.08 -2.76,-1.88 -0.76,-1.3 -1.25,-3.29 -1.25,-3.46 0,-0.45 0.49,-0.45 0.59,-0.45 0.49,0 0.52,0.11 0.77,1.05 0.52,2.05 1.18,3.76 2.54,3.76 0.91,0 1.16,-0.77 1.16,-1.71 0,-0.66 -0.32,-1.95 -0.56,-2.89 -0.25,-0.94 -0.6,-2.37 -0.77,-3.14 z"
           inkscape:connector-curvature="0"
           style="fill:#000000;stroke-width:0" /></g>    </g>
    <g
       transform="matrix(0.59008137,0,0,0.59008137,50.935074,-63.472642)"
       id="g6622">
      <g
         style="font-style:normal;font-variant:normal;font-weight:normal;font-stretch:normal;letter-spacing:normal;word-spacing:normal;text-anchor:start;fill:none;stroke:#000000;stroke-width:1.69468164;stroke-linecap:butt;stroke-linejoin:miter;stroke-miterlimit:10.43299961;stroke-opacity:1;stroke-dasharray:none;stroke-dashoffset:0"
         id="g6624"
         transform="matrix(0.40494939,0,0,-0.40494939,-70.866142,789.27165)"
         xml:space="preserve"
         stroke-miterlimit="10.433"
         font-style="normal"
         font-variant="normal"
         font-weight="normal"
         font-stretch="normal"
         font-size-adjust="none"
         letter-spacing="normal"
         word-spacing="normal"><path
           style="fill:#000000;stroke-width:0"
           inkscape:connector-curvature="0"
           d="m 457.64,397.38 0,-0.02 -0.01,-0.03 0,-0.03 -0.01,-0.02 -0.01,-0.03 0,-0.02 -0.01,-0.03 0,-0.02 -0.01,-0.02 0,-0.02 -0.01,-0.02 0,-0.02 -0.01,-0.02 0,-0.02 -0.01,-0.04 -0.01,-0.03 -0.01,-0.04 0,-0.03 -0.01,-0.03 0,-0.02 -0.01,-0.03 0,-0.02 -0.01,-0.02 0,-0.02 0,-0.02 0,-0.02 -0.01,-0.02 0,-0.01 0,-0.02 0,-0.01 0,-0.01 0,-0.01 0,-0.02 0,-0.02 0,-0.02 0,-0.01 c 0,-0.75 0.54,-1.35 1.39,-1.35 1.04,0 1.64,0.9 1.74,1.05 0.25,0.44 1.85,7.12 3.19,12.5 1,-1.99 2.59,-3.34 4.93,-3.34 l -0.05,1.1 c -3.49,0 -4.28,3.98 -4.28,4.43 0,0.2 0.25,1.2 0.4,1.84 1.39,5.58 1.89,7.38 2.98,9.37 2.15,3.63 4.64,4.73 6.18,4.73 1.84,0 3.44,-1.44 3.44,-4.88 0,-2.74 -1.44,-8.32 -2.79,-10.76 -1.65,-3.14 -4.04,-4.73 -5.93,-4.73 h 0 l 0.05,-1.1 c 5.83,0 12.26,7.03 12.26,14.45 0,5.28 -3.29,8.12 -6.93,8.12 -4.83,0 -10.06,-4.98 -11.55,-11.06 z"
           id="path6626" /><path
           style="fill:#000000;stroke-width:0"
           inkscape:connector-curvature="0"
           d="m 485.25,401.2 -0.01,-0.05 -0.01,-0.04 -0.02,-0.05 -0.01,-0.05 -0.02,-0.05 -0.01,-0.06 -0.02,-0.05 -0.01,-0.05 -0.03,-0.12 -0.03,-0.11 -0.03,-0.11 -0.02,-0.11 -0.02,-0.05 -0.01,-0.06 -0.01,-0.05 -0.01,-0.05 -0.01,-0.04 -0.01,-0.05 -0.01,-0.04 -0.01,-0.04 -0.01,-0.04 0,-0.03 -0.01,-0.03 0,-0.03 -0.01,-0.03 0,-0.02 0,0 0,-0.01 0,-0.01 0,0 c 0,-0.77 0.62,-1.12 1.18,-1.12 0.63,0 1.19,0.46 1.36,0.77 0.17,0.31 0.45,1.43 0.63,2.16 0.17,0.66 0.56,2.27 0.76,3.14 0.21,0.76 0.43,1.53 0.6,2.33 0.38,1.43 0.45,1.71 1.46,3.14 0.98,1.4 2.62,3.21 5.23,3.21 2.03,0 2.06,-1.78 2.06,-2.44 0,-2.09 -1.5,-5.96 -2.06,-7.43 -0.38,-0.97 -0.52,-1.29 -0.52,-1.88 0,-1.85 1.53,-3 3.31,-3 3.49,0 5.03,4.81 5.03,5.33 0,0.46 -0.46,0.46 -0.56,0.46 -0.49,0 -0.53,-0.21 -0.67,-0.59 -0.8,-2.79 -2.3,-4.22 -3.69,-4.22 -0.73,0 -0.87,0.49 -0.87,1.22 0,0.8 0.17,1.25 0.8,2.82 0.42,1.08 1.84,4.78 1.84,6.73 0,3.39 -2.68,3.98 -4.53,3.98 -2.89,0 -4.84,-1.78 -5.89,-3.18 -0.24,2.41 -2.3,3.18 -3.73,3.18 -1.5,0 -2.3,-1.08 -2.76,-1.88 -0.76,-1.3 -1.25,-3.29 -1.25,-3.46 0,-0.45 0.49,-0.45 0.59,-0.45 0.49,0 0.52,0.11 0.77,1.05 0.52,2.05 1.18,3.76 2.54,3.76 0.91,0 1.16,-0.77 1.16,-1.71 0,-0.66 -0.32,-1.95 -0.56,-2.89 -0.25,-0.94 -0.6,-2.37 -0.77,-3.14 z"
           id="path6628" /></g>    </g>
    <g
       id="g6744"
       transform="matrix(0.59008137,0,0,0.59008137,163.41436,-45.265678)">
      <g
         word-spacing="normal"
         letter-spacing="normal"
         font-size-adjust="none"
         font-stretch="normal"
         font-weight="normal"
         font-variant="normal"
         font-style="normal"
         stroke-miterlimit="10.433"
         xml:space="preserve"
         transform="matrix(0.40494939,0,0,-0.40494939,-70.866142,789.27165)"
         id="g6746"
         style="font-style:normal;font-variant:normal;font-weight:normal;font-stretch:normal;letter-spacing:normal;word-spacing:normal;text-anchor:start;fill:none;stroke:#000000;stroke-width:1.69468164;stroke-linecap:butt;stroke-linejoin:miter;stroke-miterlimit:10.43299961;stroke-opacity:1;stroke-dasharray:none;stroke-dashoffset:0"><path
           id="path6748"
           d="m 477.27,436.24 0.03,0.13 0.03,0.12 0.03,0.11 0.03,0.11 0.03,0.11 0.03,0.09 0.03,0.1 0.03,0.08 0.03,0.09 0.03,0.07 0.03,0.08 0.03,0.06 0.03,0.07 0.03,0.06 0.03,0.05 0.03,0.06 0.03,0.04 0.03,0.05 0.04,0.04 0.03,0.04 0.04,0.03 0.03,0.04 0.04,0.03 0.04,0.02 0.04,0.03 0.05,0.02 0.04,0.02 0.05,0.02 0.05,0.02 0.05,0.02 0.05,0.01 0.05,0.02 c 0.45,0.1 2.1,0.1 3.14,0.1 5.04,0 7.28,-0.2 7.28,-4.09 0,-0.74 -0.2,-2.68 -0.4,-3.98 -0.05,-0.2 -0.15,-0.8 -0.15,-0.95 0,-0.3 0.15,-0.64 0.6,-0.64 0.55,0 0.64,0.39 0.74,1.14 l 1.35,8.67 c 0.05,0.2 0.1,0.7 0.1,0.85 0,0.54 -0.5,0.54 -1.35,0.54 h -27.64 c -1.2,0 -1.25,-0.05 -1.6,-0.99 l -2.98,-8.77 c -0.05,-0.1 -0.3,-0.8 -0.3,-0.9 0,-0.29 0.25,-0.54 0.59,-0.54 0.5,0 0.55,0.25 0.85,1.04 2.69,7.72 3.98,8.62 11.36,8.62 h 1.94 c 1.4,0 1.4,-0.2 1.4,-0.6 0,-0.3 -0.16,-0.9 -0.2,-1.04 l -6.68,-26.61 c -0.45,-1.84 -0.6,-2.39 -5.93,-2.39 -1.79,0 -2.09,0 -2.09,-0.94 0,-0.6 0.55,-0.6 0.85,-0.6 1.34,0 2.74,0.1 4.08,0.1 h 8.37 c 1.44,0 2.94,-0.1 4.33,-0.1 0.5,0 1.1,0 1.1,1 0,0.54 -0.4,0.54 -1.69,0.54 -1.25,0 -1.89,0 -3.19,0.1 -1.45,0.15 -1.84,0.3 -1.84,1.1 0,0.05 0,0.3 0.19,1.05 z"
           inkscape:connector-curvature="0"
           style="fill:#000000;stroke-width:0" /><path
           id="path6750"
           d="m 499.09,408.97 0.33,-0.75 0.33,-0.78 0.33,-0.78 0.33,-0.78 0.33,-0.78 0.31,-0.76 0.16,-0.37 0.15,-0.36 0.15,-0.36 0.14,-0.34 0.15,-0.34 0.13,-0.32 0.13,-0.31 0.13,-0.3 0.12,-0.28 0.12,-0.27 0.11,-0.25 0.1,-0.24 0.1,-0.21 0.09,-0.2 0.08,-0.17 0.08,-0.16 0.06,-0.13 0.06,-0.1 0.05,-0.09 0.04,-0.05 c 0.66,-0.84 1.29,-0.84 1.85,-0.84 h 0.7 c 0.66,0 1.01,0 1.01,0.42 0,0.17 -0.11,0.28 -0.17,0.35 -0.43,0.38 -0.77,1.19 -0.91,1.5 L 497.17,421 c -0.24,0.63 -0.94,2.2 -4.64,2.2 -0.42,0 -0.91,0 -0.91,-0.49 0,-0.42 0.35,-0.45 0.53,-0.49 0.73,-0.1 1.39,-0.21 2.26,-2.19 l 4.15,-9.77 -10.28,-9.27 c -0.42,-0.35 -0.7,-0.63 -0.7,-1.22 0,-0.84 0.7,-1.19 1.19,-1.19 0.66,0 1.08,0.46 1.18,0.56 z"
           inkscape:connector-curvature="0"
           style="fill:#000000;stroke-width:0" /></g>    </g>
    <g
       transform="matrix(0.59008137,0,0,0.59008137,58.542825,-39.575059)"
       id="g6874">
      <g
         style="font-style:normal;font-variant:normal;font-weight:normal;font-stretch:normal;letter-spacing:normal;word-spacing:normal;text-anchor:start;fill:none;stroke:#000000;stroke-width:1.69468164;stroke-linecap:butt;stroke-linejoin:miter;stroke-miterlimit:10.43299961;stroke-opacity:1;stroke-dasharray:none;stroke-dashoffset:0"
         id="g6876"
         transform="matrix(0.40494939,0,0,-0.40494939,-70.866142,789.27165)"
         xml:space="preserve"
         stroke-miterlimit="10.433"
         font-style="normal"
         font-variant="normal"
         font-weight="normal"
         font-stretch="normal"
         font-size-adjust="none"
         letter-spacing="normal"
         word-spacing="normal"><path
           style="fill:#000000;stroke-width:0"
           inkscape:connector-curvature="0"
           d="m 477.27,436.24 0.03,0.13 0.03,0.12 0.03,0.11 0.03,0.11 0.03,0.11 0.03,0.09 0.03,0.1 0.03,0.08 0.03,0.09 0.03,0.07 0.03,0.08 0.03,0.06 0.03,0.07 0.03,0.06 0.03,0.05 0.03,0.06 0.03,0.04 0.03,0.05 0.04,0.04 0.03,0.04 0.04,0.03 0.03,0.04 0.04,0.03 0.04,0.02 0.04,0.03 0.05,0.02 0.04,0.02 0.05,0.02 0.05,0.02 0.05,0.02 0.05,0.01 0.05,0.02 c 0.45,0.1 2.1,0.1 3.14,0.1 5.04,0 7.28,-0.2 7.28,-4.09 0,-0.74 -0.2,-2.68 -0.4,-3.98 -0.05,-0.2 -0.15,-0.8 -0.15,-0.95 0,-0.3 0.15,-0.64 0.6,-0.64 0.55,0 0.64,0.39 0.74,1.14 l 1.35,8.67 c 0.05,0.2 0.1,0.7 0.1,0.85 0,0.54 -0.5,0.54 -1.35,0.54 h -27.64 c -1.2,0 -1.25,-0.05 -1.6,-0.99 l -2.98,-8.77 c -0.05,-0.1 -0.3,-0.8 -0.3,-0.9 0,-0.29 0.25,-0.54 0.59,-0.54 0.5,0 0.55,0.25 0.85,1.04 2.69,7.72 3.98,8.62 11.36,8.62 h 1.94 c 1.4,0 1.4,-0.2 1.4,-0.6 0,-0.3 -0.16,-0.9 -0.2,-1.04 l -6.68,-26.61 c -0.45,-1.84 -0.6,-2.39 -5.93,-2.39 -1.79,0 -2.09,0 -2.09,-0.94 0,-0.6 0.55,-0.6 0.85,-0.6 1.34,0 2.74,0.1 4.08,0.1 h 8.37 c 1.44,0 2.94,-0.1 4.33,-0.1 0.5,0 1.1,0 1.1,1 0,0.54 -0.4,0.54 -1.69,0.54 -1.25,0 -1.89,0 -3.19,0.1 -1.45,0.15 -1.84,0.3 -1.84,1.1 0,0.05 0,0.3 0.19,1.05 z"
           id="path6878" /></g>    </g>
    <path
       style="color:#000000;fill:none;stroke:#000000;stroke-width:1;stroke-linecap:butt;stroke-linejoin:miter;stroke-miterlimit:4;stroke-opacity:1;stroke-dasharray:none;stroke-dashoffset:0;marker:none;marker-start:url(#Arrow2Mstart);marker-end:url(#Arrow2Mend);visibility:visible;display:inline;overflow:visible;enable-background:accumulate"
       d="m 23.57066,360.83993 0,103.92857 125.4762,0"
       id="path6959"
       inkscape:connector-curvature="0" />
    <path
       sodipodi:nodetypes="cc"
       inkscape:connector-curvature="0"
       id="path6961"
       d="m 23.38072,377.32644 c 57.042403,0 113.0274,-0.31489 113.0274,87.63073"
       style="color:#000000;fill:none;stroke:#000000;stroke-width:0.80000001;stroke-linecap:butt;stroke-linejoin:miter;stroke-miterlimit:4;stroke-opacity:1;stroke-dasharray:none;stroke-dashoffset:0;marker:none;visibility:visible;display:inline;overflow:visible;enable-background:accumulate" />
    <path
       style="color:#000000;fill:none;stroke:#000000;stroke-width:0.80000001;stroke-linecap:butt;stroke-linejoin:miter;stroke-miterlimit:4;stroke-opacity:1;stroke-dasharray:none;stroke-dashoffset:0;marker:none;visibility:visible;display:inline;overflow:visible;enable-background:accumulate"
       d="m 23.38072,464.71476 c 57.042403,0 113.0274,0.31489 113.0274,-87.63073"
       id="path6963"
       inkscape:connector-curvature="0"
       sodipodi:nodetypes="cc" />
    <text
       sodipodi:linespacing="125%"
       id="text6969"
       y="382.62973"
       x="15.010637"
       style="font-size:12px;font-style:normal;font-variant:normal;font-weight:normal;font-stretch:normal;line-height:125%;letter-spacing:0px;word-spacing:0px;fill:#000000;fill-opacity:1;stroke:none;font-family:cmr10;-inkscape-font-specification:cmr10"
       xml:space="preserve"><tspan
         y="382.62973"
         x="15.010637"
         id="tspan6971"
         sodipodi:role="line">1</tspan></text>
    <text
       sodipodi:linespacing="125%"
       id="text6977"
       y="465.46222"
       x="14.541887"
       style="font-size:12px;font-style:normal;font-variant:normal;font-weight:normal;font-stretch:normal;line-height:125%;letter-spacing:0px;word-spacing:0px;fill:#000000;fill-opacity:1;stroke:none;font-family:cmr10;-inkscape-font-specification:cmr10"
       xml:space="preserve"><tspan
         y="465.46222"
         x="14.541887"
         id="tspan6979"
         sodipodi:role="line">0</tspan></text>
    <path
       inkscape:connector-curvature="0"
       id="path6981"
       d="m 136.39154,464.57837 c 0,-1.77165 0,-82.53794 0,-82.53794"
       style="color:#000000;fill:none;stroke:#000000;stroke-width:1;stroke-linecap:butt;stroke-linejoin:miter;stroke-miterlimit:4;stroke-opacity:1;stroke-dasharray:1, 2.00000001;stroke-dashoffset:0;marker:none;visibility:visible;display:inline;overflow:visible;enable-background:accumulate" />
    <path
       inkscape:connector-curvature="0"
       id="path6983"
       d="m 136.38118,377.49055 16.62509,0"
       style="color:#000000;fill:none;stroke:#000000;stroke-width:0.80000001;stroke-linecap:butt;stroke-linejoin:miter;stroke-miterlimit:4;stroke-opacity:1;stroke-dasharray:none;stroke-dashoffset:0;marker:none;visibility:visible;display:inline;overflow:visible;enable-background:accumulate" />
    <g
       id="g6987"
       transform="matrix(0,-0.59008137,0.59008137,0,-356.70894,500.1633)">
      <g
         word-spacing="normal"
         letter-spacing="normal"
         font-size-adjust="none"
         font-stretch="normal"
         font-weight="normal"
         font-variant="normal"
         font-style="normal"
         stroke-miterlimit="10.433"
         xml:space="preserve"
         transform="matrix(0.40494939,0,0,-0.40494939,-70.866142,789.27165)"
         id="g6989"
         style="font-style:normal;font-variant:normal;font-weight:normal;font-stretch:normal;letter-spacing:normal;word-spacing:normal;text-anchor:start;fill:none;stroke:#000000;stroke-width:1.69468164;stroke-linecap:butt;stroke-linejoin:miter;stroke-miterlimit:10.43299961;stroke-opacity:1;stroke-dasharray:none;stroke-dashoffset:0"><path
           id="path6991"
           d="m 457.64,397.38 0,-0.02 -0.01,-0.03 0,-0.03 -0.01,-0.02 -0.01,-0.03 0,-0.02 -0.01,-0.03 0,-0.02 -0.01,-0.02 0,-0.02 -0.01,-0.02 0,-0.02 -0.01,-0.02 0,-0.02 -0.01,-0.04 -0.01,-0.03 -0.01,-0.04 0,-0.03 -0.01,-0.03 0,-0.02 -0.01,-0.03 0,-0.02 -0.01,-0.02 0,-0.02 0,-0.02 0,-0.02 -0.01,-0.02 0,-0.01 0,-0.02 0,-0.01 0,-0.01 0,-0.01 0,-0.02 0,-0.02 0,-0.02 0,-0.01 c 0,-0.75 0.54,-1.35 1.39,-1.35 1.04,0 1.64,0.9 1.74,1.05 0.25,0.44 1.85,7.12 3.19,12.5 1,-1.99 2.59,-3.34 4.93,-3.34 l -0.05,1.1 c -3.49,0 -4.28,3.98 -4.28,4.43 0,0.2 0.25,1.2 0.4,1.84 1.39,5.58 1.89,7.38 2.98,9.37 2.15,3.63 4.64,4.73 6.18,4.73 1.84,0 3.44,-1.44 3.44,-4.88 0,-2.74 -1.44,-8.32 -2.79,-10.76 -1.65,-3.14 -4.04,-4.73 -5.93,-4.73 h 0 l 0.05,-1.1 c 5.83,0 12.26,7.03 12.26,14.45 0,5.28 -3.29,8.12 -6.93,8.12 -4.83,0 -10.06,-4.98 -11.55,-11.06 z"
           inkscape:connector-curvature="0"
           style="fill:#000000;stroke-width:0" /><path
           id="path6993"
           d="m 496.03,412.11 -0.09,-0.02 -0.08,-0.03 -0.08,-0.02 -0.08,-0.03 -0.07,-0.03 -0.07,-0.04 -0.08,-0.04 -0.06,-0.04 -0.07,-0.04 -0.06,-0.04 -0.07,-0.05 -0.05,-0.05 -0.06,-0.05 -0.06,-0.05 -0.05,-0.05 -0.05,-0.06 -0.04,-0.05 -0.04,-0.06 -0.05,-0.06 -0.03,-0.06 -0.04,-0.06 -0.03,-0.06 -0.03,-0.06 -0.03,-0.07 -0.02,-0.06 -0.02,-0.07 -0.02,-0.06 -0.01,-0.07 -0.01,-0.06 -0.01,-0.07 -0.01,-0.06 0,-0.07 c 0,-0.8 0.7,-1.11 1.15,-1.11 0.35,0 1.68,0.21 1.68,1.98 0,2.27 -2.51,3.04 -4.64,3.04 -5.44,0 -6.41,-4.01 -6.41,-5.09 0,-1.29 0.73,-2.13 1.21,-2.55 0.91,-0.7 1.54,-0.84 3.95,-1.26 0.73,-0.13 2.96,-0.55 2.96,-2.3 0,-0.59 -0.39,-1.91 -1.85,-2.79 -1.36,-0.76 -3.07,-0.76 -3.49,-0.76 -1.39,0 -3.38,0.31 -4.18,1.46 1.15,0.14 1.92,1.01 1.92,1.99 0,0.87 -0.63,1.29 -1.36,1.29 -1.01,0 -2.02,-0.8 -2.02,-2.33 0,-2.1 2.23,-3.39 5.61,-3.39 6.41,0 7.6,4.39 7.6,5.76 0,3.2 -3.52,3.83 -4.81,4.07 -0.31,0.07 -1.18,0.22 -1.4,0.28 -1.28,0.25 -1.91,0.98 -1.91,1.75 0,0.8 0.63,1.74 1.39,2.23 0.94,0.59 2.16,0.66 2.75,0.66 0.74,0 2.55,-0.1 3.32,-1.29 z"
           inkscape:connector-curvature="0"
           style="fill:#000000;stroke-width:0" /><path
           id="path6995"
           d="m 524.87,441.47 0.01,0.03 0.01,0.03 0.01,0.03 0.01,0.02 0.01,0.03 0.01,0.03 0.02,0.05 0.02,0.05 0.01,0.05 0.02,0.04 0.01,0.04 0.01,0.04 0.02,0.04 0.01,0.04 0.01,0.03 0,0.03 0.01,0.03 0.01,0.03 0.01,0.03 0,0.02 0.01,0.03 0,0.02 0,0.02 0.01,0.02 0,0.01 0,0.02 0,0.01 0,0.02 0.01,0.01 0,0.01 0,0.01 0,0 0,0.01 0,0.01 0,0 c 0,0.55 -0.45,1 -1,1 -0.35,0 -0.7,-0.15 -0.85,-0.45 l -17.28,-47.47 c -0.25,-0.65 -0.25,-0.85 -0.25,-0.9 0,-0.54 0.45,-0.99 0.99,-0.99 0.65,0 0.8,0.34 1.1,1.19 z"
           inkscape:connector-curvature="0"
           style="fill:#000000;stroke-width:0" /><path
           id="path6997"
           d="m 529.65,397.38 -0.01,-0.02 -0.01,-0.03 0,-0.03 -0.01,-0.02 -0.01,-0.03 0,-0.02 -0.01,-0.03 0,-0.02 -0.01,-0.02 0,-0.02 -0.01,-0.02 0,-0.02 -0.01,-0.02 0,-0.02 -0.01,-0.04 -0.01,-0.03 -0.01,-0.04 0,-0.03 -0.01,-0.03 0,-0.02 -0.01,-0.03 0,-0.02 -0.01,-0.02 0,-0.02 0,-0.02 0,-0.02 -0.01,-0.02 0,-0.01 0,-0.02 0,-0.01 0,-0.01 0,-0.01 0,-0.02 0,-0.02 0,-0.02 0,-0.01 c 0,-0.75 0.54,-1.35 1.39,-1.35 1.04,0 1.64,0.9 1.74,1.05 0.25,0.44 1.85,7.12 3.19,12.5 1,-1.99 2.59,-3.34 4.93,-3.34 l -0.05,1.1 c -3.48,0 -4.28,3.98 -4.28,4.43 0,0.2 0.25,1.2 0.4,1.84 1.39,5.58 1.89,7.38 2.98,9.37 2.15,3.63 4.64,4.73 6.18,4.73 1.84,0 3.44,-1.44 3.44,-4.88 0,-2.74 -1.44,-8.32 -2.79,-10.76 -1.65,-3.14 -4.04,-4.73 -5.93,-4.73 h 0 l 0.05,-1.1 c 5.83,0 12.26,7.03 12.26,14.45 0,5.28 -3.29,8.12 -6.93,8.12 -4.83,0 -10.06,-4.98 -11.55,-11.06 z"
           inkscape:connector-curvature="0"
           style="fill:#000000;stroke-width:0" /></g>    </g>
    <g
       transform="matrix(0.59008137,0,0,0.59008137,-8.0487915,5.0487786)"
       id="g7007">
      <g
         style="font-style:normal;font-variant:normal;font-weight:normal;font-stretch:normal;letter-spacing:normal;word-spacing:normal;text-anchor:start;fill:none;stroke:#000000;stroke-width:1.69468164;stroke-linecap:butt;stroke-linejoin:miter;stroke-miterlimit:10.43299961;stroke-opacity:1;stroke-dasharray:none;stroke-dashoffset:0"
         id="g7009"
         transform="matrix(0.40494939,0,0,-0.40494939,-70.866142,789.27165)"
         xml:space="preserve"
         stroke-miterlimit="10.433"
         font-style="normal"
         font-variant="normal"
         font-weight="normal"
         font-stretch="normal"
         font-size-adjust="none"
         letter-spacing="normal"
         word-spacing="normal"><path
           style="fill:#000000;stroke-width:0"
           inkscape:connector-curvature="0"
           d="m 457.64,397.38 0,-0.02 -0.01,-0.03 0,-0.03 -0.01,-0.02 -0.01,-0.03 0,-0.02 -0.01,-0.03 0,-0.02 -0.01,-0.02 0,-0.02 -0.01,-0.02 0,-0.02 -0.01,-0.02 0,-0.02 -0.01,-0.04 -0.01,-0.03 -0.01,-0.04 0,-0.03 -0.01,-0.03 0,-0.02 -0.01,-0.03 0,-0.02 -0.01,-0.02 0,-0.02 0,-0.02 0,-0.02 -0.01,-0.02 0,-0.01 0,-0.02 0,-0.01 0,-0.01 0,-0.01 0,-0.02 0,-0.02 0,-0.02 0,-0.01 c 0,-0.75 0.54,-1.35 1.39,-1.35 1.04,0 1.64,0.9 1.74,1.05 0.25,0.44 1.85,7.12 3.19,12.5 1,-1.99 2.59,-3.34 4.93,-3.34 l -0.05,1.1 c -3.49,0 -4.28,3.98 -4.28,4.43 0,0.2 0.25,1.2 0.4,1.84 1.39,5.58 1.89,7.38 2.98,9.37 2.15,3.63 4.64,4.73 6.18,4.73 1.84,0 3.44,-1.44 3.44,-4.88 0,-2.74 -1.44,-8.32 -2.79,-10.76 -1.65,-3.14 -4.04,-4.73 -5.93,-4.73 h 0 l 0.05,-1.1 c 5.83,0 12.26,7.03 12.26,14.45 0,5.28 -3.29,8.12 -6.93,8.12 -4.83,0 -10.06,-4.98 -11.55,-11.06 z"
           id="path7011" /><path
           style="fill:#000000;stroke-width:0"
           inkscape:connector-curvature="0"
           d="m 496.03,412.11 -0.09,-0.02 -0.08,-0.03 -0.08,-0.02 -0.08,-0.03 -0.07,-0.03 -0.07,-0.04 -0.08,-0.04 -0.06,-0.04 -0.07,-0.04 -0.06,-0.04 -0.07,-0.05 -0.05,-0.05 -0.06,-0.05 -0.06,-0.05 -0.05,-0.05 -0.05,-0.06 -0.04,-0.05 -0.04,-0.06 -0.05,-0.06 -0.03,-0.06 -0.04,-0.06 -0.03,-0.06 -0.03,-0.06 -0.03,-0.07 -0.02,-0.06 -0.02,-0.07 -0.02,-0.06 -0.01,-0.07 -0.01,-0.06 -0.01,-0.07 -0.01,-0.06 0,-0.07 c 0,-0.8 0.7,-1.11 1.15,-1.11 0.35,0 1.68,0.21 1.68,1.98 0,2.27 -2.51,3.04 -4.64,3.04 -5.44,0 -6.41,-4.01 -6.41,-5.09 0,-1.29 0.73,-2.13 1.21,-2.55 0.91,-0.7 1.54,-0.84 3.95,-1.26 0.73,-0.13 2.96,-0.55 2.96,-2.3 0,-0.59 -0.39,-1.91 -1.85,-2.79 -1.36,-0.76 -3.07,-0.76 -3.49,-0.76 -1.39,0 -3.38,0.31 -4.18,1.46 1.15,0.14 1.92,1.01 1.92,1.99 0,0.87 -0.63,1.29 -1.36,1.29 -1.01,0 -2.02,-0.8 -2.02,-2.33 0,-2.1 2.23,-3.39 5.61,-3.39 6.41,0 7.6,4.39 7.6,5.76 0,3.2 -3.52,3.83 -4.81,4.07 -0.31,0.07 -1.18,0.22 -1.4,0.28 -1.28,0.25 -1.91,0.98 -1.91,1.75 0,0.8 0.63,1.74 1.39,2.23 0.94,0.59 2.16,0.66 2.75,0.66 0.74,0 2.55,-0.1 3.32,-1.29 z"
           id="path7013" /></g>    </g>
    <g
       id="g7023"
       transform="matrix(0.59008137,0,0,0.59008137,-7.0014855,89.31293)">
      <g
         word-spacing="normal"
         letter-spacing="normal"
         font-size-adjust="none"
         font-stretch="normal"
         font-weight="normal"
         font-variant="normal"
         font-style="normal"
         stroke-miterlimit="10.433"
         xml:space="preserve"
         transform="matrix(0.40494939,0,0,-0.40494939,-70.866142,789.27165)"
         id="g7025"
         style="font-style:normal;font-variant:normal;font-weight:normal;font-stretch:normal;letter-spacing:normal;word-spacing:normal;text-anchor:start;fill:none;stroke:#000000;stroke-width:1.69468164;stroke-linecap:butt;stroke-linejoin:miter;stroke-miterlimit:10.43299961;stroke-opacity:1;stroke-dasharray:none;stroke-dashoffset:0"><path
           id="path7027"
           d="m 457.64,397.38 0,-0.02 -0.01,-0.03 0,-0.03 -0.01,-0.02 -0.01,-0.03 0,-0.02 -0.01,-0.03 0,-0.02 -0.01,-0.02 0,-0.02 -0.01,-0.02 0,-0.02 -0.01,-0.02 0,-0.02 -0.01,-0.04 -0.01,-0.03 -0.01,-0.04 0,-0.03 -0.01,-0.03 0,-0.02 -0.01,-0.03 0,-0.02 -0.01,-0.02 0,-0.02 0,-0.02 0,-0.02 -0.01,-0.02 0,-0.01 0,-0.02 0,-0.01 0,-0.01 0,-0.01 0,-0.02 0,-0.02 0,-0.02 0,-0.01 c 0,-0.75 0.54,-1.35 1.39,-1.35 1.04,0 1.64,0.9 1.74,1.05 0.25,0.44 1.85,7.12 3.19,12.5 1,-1.99 2.59,-3.34 4.93,-3.34 l -0.05,1.1 c -3.49,0 -4.28,3.98 -4.28,4.43 0,0.2 0.25,1.2 0.4,1.84 1.39,5.58 1.89,7.38 2.98,9.37 2.15,3.63 4.64,4.73 6.18,4.73 1.84,0 3.44,-1.44 3.44,-4.88 0,-2.74 -1.44,-8.32 -2.79,-10.76 -1.65,-3.14 -4.04,-4.73 -5.93,-4.73 h 0 l 0.05,-1.1 c 5.83,0 12.26,7.03 12.26,14.45 0,5.28 -3.29,8.12 -6.93,8.12 -4.83,0 -10.06,-4.98 -11.55,-11.06 z"
           inkscape:connector-curvature="0"
           style="fill:#000000;stroke-width:0" /><path
           id="path7029"
           d="m 485.25,401.2 -0.01,-0.05 -0.01,-0.04 -0.02,-0.05 -0.01,-0.05 -0.02,-0.05 -0.01,-0.06 -0.02,-0.05 -0.01,-0.05 -0.03,-0.12 -0.03,-0.11 -0.03,-0.11 -0.02,-0.11 -0.02,-0.05 -0.01,-0.06 -0.01,-0.05 -0.01,-0.05 -0.01,-0.04 -0.01,-0.05 -0.01,-0.04 -0.01,-0.04 -0.01,-0.04 0,-0.03 -0.01,-0.03 0,-0.03 -0.01,-0.03 0,-0.02 0,0 0,-0.01 0,-0.01 0,0 c 0,-0.77 0.62,-1.12 1.18,-1.12 0.63,0 1.19,0.46 1.36,0.77 0.17,0.31 0.45,1.43 0.63,2.16 0.17,0.66 0.56,2.27 0.76,3.14 0.21,0.76 0.43,1.53 0.6,2.33 0.38,1.43 0.45,1.71 1.46,3.14 0.98,1.4 2.62,3.21 5.23,3.21 2.03,0 2.06,-1.78 2.06,-2.44 0,-2.09 -1.5,-5.96 -2.06,-7.43 -0.38,-0.97 -0.52,-1.29 -0.52,-1.88 0,-1.85 1.53,-3 3.31,-3 3.49,0 5.03,4.81 5.03,5.33 0,0.46 -0.46,0.46 -0.56,0.46 -0.49,0 -0.53,-0.21 -0.67,-0.59 -0.8,-2.79 -2.3,-4.22 -3.69,-4.22 -0.73,0 -0.87,0.49 -0.87,1.22 0,0.8 0.17,1.25 0.8,2.82 0.42,1.08 1.84,4.78 1.84,6.73 0,3.39 -2.68,3.98 -4.53,3.98 -2.89,0 -4.84,-1.78 -5.89,-3.18 -0.24,2.41 -2.3,3.18 -3.73,3.18 -1.5,0 -2.3,-1.08 -2.76,-1.88 -0.76,-1.3 -1.25,-3.29 -1.25,-3.46 0,-0.45 0.49,-0.45 0.59,-0.45 0.49,0 0.52,0.11 0.77,1.05 0.52,2.05 1.18,3.76 2.54,3.76 0.91,0 1.16,-0.77 1.16,-1.71 0,-0.66 -0.32,-1.95 -0.56,-2.89 -0.25,-0.94 -0.6,-2.37 -0.77,-3.14 z"
           inkscape:connector-curvature="0"
           style="fill:#000000;stroke-width:0" /></g>    </g>
    <g
       transform="matrix(0.59008137,0,0,0.59008137,63.303932,106.2572)"
       id="g7031">
      <g
         style="font-style:normal;font-variant:normal;font-weight:normal;font-stretch:normal;letter-spacing:normal;word-spacing:normal;text-anchor:start;fill:none;stroke:#000000;stroke-width:1.69468164;stroke-linecap:butt;stroke-linejoin:miter;stroke-miterlimit:10.43299961;stroke-opacity:1;stroke-dasharray:none;stroke-dashoffset:0"
         id="g7033"
         transform="matrix(0.40494939,0,0,-0.40494939,-70.866142,789.27165)"
         xml:space="preserve"
         stroke-miterlimit="10.433"
         font-style="normal"
         font-variant="normal"
         font-weight="normal"
         font-stretch="normal"
         font-size-adjust="none"
         letter-spacing="normal"
         word-spacing="normal"><path
           style="fill:#000000;stroke-width:0"
           inkscape:connector-curvature="0"
           d="m 477.27,436.24 0.03,0.13 0.03,0.12 0.03,0.11 0.03,0.11 0.03,0.11 0.03,0.09 0.03,0.1 0.03,0.08 0.03,0.09 0.03,0.07 0.03,0.08 0.03,0.06 0.03,0.07 0.03,0.06 0.03,0.05 0.03,0.06 0.03,0.04 0.03,0.05 0.04,0.04 0.03,0.04 0.04,0.03 0.03,0.04 0.04,0.03 0.04,0.02 0.04,0.03 0.05,0.02 0.04,0.02 0.05,0.02 0.05,0.02 0.05,0.02 0.05,0.01 0.05,0.02 c 0.45,0.1 2.1,0.1 3.14,0.1 5.04,0 7.28,-0.2 7.28,-4.09 0,-0.74 -0.2,-2.68 -0.4,-3.98 -0.05,-0.2 -0.15,-0.8 -0.15,-0.95 0,-0.3 0.15,-0.64 0.6,-0.64 0.55,0 0.64,0.39 0.74,1.14 l 1.35,8.67 c 0.05,0.2 0.1,0.7 0.1,0.85 0,0.54 -0.5,0.54 -1.35,0.54 h -27.64 c -1.2,0 -1.25,-0.05 -1.6,-0.99 l -2.98,-8.77 c -0.05,-0.1 -0.3,-0.8 -0.3,-0.9 0,-0.29 0.25,-0.54 0.59,-0.54 0.5,0 0.55,0.25 0.85,1.04 2.69,7.72 3.98,8.62 11.36,8.62 h 1.94 c 1.4,0 1.4,-0.2 1.4,-0.6 0,-0.3 -0.16,-0.9 -0.2,-1.04 l -6.68,-26.61 c -0.45,-1.84 -0.6,-2.39 -5.93,-2.39 -1.79,0 -2.09,0 -2.09,-0.94 0,-0.6 0.55,-0.6 0.85,-0.6 1.34,0 2.74,0.1 4.08,0.1 h 8.37 c 1.44,0 2.94,-0.1 4.33,-0.1 0.5,0 1.1,0 1.1,1 0,0.54 -0.4,0.54 -1.69,0.54 -1.25,0 -1.89,0 -3.19,0.1 -1.45,0.15 -1.84,0.3 -1.84,1.1 0,0.05 0,0.3 0.19,1.05 z"
           id="path7035" /><path
           style="fill:#000000;stroke-width:0"
           inkscape:connector-curvature="0"
           d="m 499.09,408.97 0.33,-0.75 0.33,-0.78 0.33,-0.78 0.33,-0.78 0.33,-0.78 0.31,-0.76 0.16,-0.37 0.15,-0.36 0.15,-0.36 0.14,-0.34 0.15,-0.34 0.13,-0.32 0.13,-0.31 0.13,-0.3 0.12,-0.28 0.12,-0.27 0.11,-0.25 0.1,-0.24 0.1,-0.21 0.09,-0.2 0.08,-0.17 0.08,-0.16 0.06,-0.13 0.06,-0.1 0.05,-0.09 0.04,-0.05 c 0.66,-0.84 1.29,-0.84 1.85,-0.84 h 0.7 c 0.66,0 1.01,0 1.01,0.42 0,0.17 -0.11,0.28 -0.17,0.35 -0.43,0.38 -0.77,1.19 -0.91,1.5 L 497.17,421 c -0.24,0.63 -0.94,2.2 -4.64,2.2 -0.42,0 -0.91,0 -0.91,-0.49 0,-0.42 0.35,-0.45 0.53,-0.49 0.73,-0.1 1.39,-0.21 2.26,-2.19 l 4.15,-9.77 -10.28,-9.27 c -0.42,-0.35 -0.7,-0.63 -0.7,-1.22 0,-0.84 0.7,-1.19 1.19,-1.19 0.66,0 1.08,0.46 1.18,0.56 z"
           id="path7037" /></g>    </g>
    <g
       id="g7039"
       transform="matrix(0.59008137,0,0,0.59008137,-5.4546498,108.15975)">
      <g
         word-spacing="normal"
         letter-spacing="normal"
         font-size-adjust="none"
         font-stretch="normal"
         font-weight="normal"
         font-variant="normal"
         font-style="normal"
         stroke-miterlimit="10.433"
         xml:space="preserve"
         transform="matrix(0.40494939,0,0,-0.40494939,-70.866142,789.27165)"
         id="g7041"
         style="font-style:normal;font-variant:normal;font-weight:normal;font-stretch:normal;letter-spacing:normal;word-spacing:normal;text-anchor:start;fill:none;stroke:#000000;stroke-width:1.69468164;stroke-linecap:butt;stroke-linejoin:miter;stroke-miterlimit:10.43299961;stroke-opacity:1;stroke-dasharray:none;stroke-dashoffset:0"><path
           id="path7043"
           d="m 477.27,436.24 0.03,0.13 0.03,0.12 0.03,0.11 0.03,0.11 0.03,0.11 0.03,0.09 0.03,0.1 0.03,0.08 0.03,0.09 0.03,0.07 0.03,0.08 0.03,0.06 0.03,0.07 0.03,0.06 0.03,0.05 0.03,0.06 0.03,0.04 0.03,0.05 0.04,0.04 0.03,0.04 0.04,0.03 0.03,0.04 0.04,0.03 0.04,0.02 0.04,0.03 0.05,0.02 0.04,0.02 0.05,0.02 0.05,0.02 0.05,0.02 0.05,0.01 0.05,0.02 c 0.45,0.1 2.1,0.1 3.14,0.1 5.04,0 7.28,-0.2 7.28,-4.09 0,-0.74 -0.2,-2.68 -0.4,-3.98 -0.05,-0.2 -0.15,-0.8 -0.15,-0.95 0,-0.3 0.15,-0.64 0.6,-0.64 0.55,0 0.64,0.39 0.74,1.14 l 1.35,8.67 c 0.05,0.2 0.1,0.7 0.1,0.85 0,0.54 -0.5,0.54 -1.35,0.54 h -27.64 c -1.2,0 -1.25,-0.05 -1.6,-0.99 l -2.98,-8.77 c -0.05,-0.1 -0.3,-0.8 -0.3,-0.9 0,-0.29 0.25,-0.54 0.59,-0.54 0.5,0 0.55,0.25 0.85,1.04 2.69,7.72 3.98,8.62 11.36,8.62 h 1.94 c 1.4,0 1.4,-0.2 1.4,-0.6 0,-0.3 -0.16,-0.9 -0.2,-1.04 l -6.68,-26.61 c -0.45,-1.84 -0.6,-2.39 -5.93,-2.39 -1.79,0 -2.09,0 -2.09,-0.94 0,-0.6 0.55,-0.6 0.85,-0.6 1.34,0 2.74,0.1 4.08,0.1 h 8.37 c 1.44,0 2.94,-0.1 4.33,-0.1 0.5,0 1.1,0 1.1,1 0,0.54 -0.4,0.54 -1.69,0.54 -1.25,0 -1.89,0 -3.19,0.1 -1.45,0.15 -1.84,0.3 -1.84,1.1 0,0.05 0,0.3 0.19,1.05 z"
           inkscape:connector-curvature="0"
           style="fill:#000000;stroke-width:0" /></g>    </g>
    <path
       sodipodi:nodetypes="cccc"
       inkscape:connector-curvature="0"
       id="path7045"
       d="m 104.73588,451.86215 c 0.42789,-0.15366 9.64696,-7.14501 9.64696,-7.14501 l 0,7.14501 z"
       style="color:#000000;fill:none;stroke:#000000;stroke-width:1;stroke-linecap:butt;stroke-linejoin:miter;stroke-miterlimit:4;stroke-opacity:1;stroke-dasharray:none;stroke-dashoffset:0;marker:none;visibility:visible;display:inline;overflow:visible;enable-background:accumulate" />
    <path
       inkscape:connector-curvature="0"
       id="path7049"
       d="m 117.375,448.48587 50.46806,0"
       style="color:#000000;fill:none;stroke:#000000;stroke-width:1;stroke-linecap:butt;stroke-linejoin:miter;stroke-miterlimit:4;stroke-opacity:1;stroke-dasharray:0.99999999, 1.99999997;stroke-dashoffset:0;marker:none;visibility:visible;display:inline;overflow:visible;enable-background:accumulate" />
    <path
       id="path7814"
       title="-sin(x)"
       d="m 169.00254,448.24256 c 0.71215,1.01151 1.42431,1.99208 2.13647,2.37972 0.71215,0.38764 1.42431,0.15646 2.13647,-0.55837 0.71216,-0.71482 1.42431,-1.87233 2.13646,-2.80707 0.71216,-0.93474 1.42432,-1.58948 2.13648,-1.59007 0.71215,-5.1e-4 1.42431,0.65579 2.13646,1.59007 0.71216,0.93429 1.42432,2.09141 2.13648,2.80707 0.71215,0.71567 1.42431,0.94491 2.13647,0.55837 0.71215,-0.38654 1.42431,-1.36821 2.13646,-2.37972"
       style="fill:none;stroke:#000000;stroke-width:1;stroke-linecap:round;stroke-linejoin:round;stroke-miterlimit:4;stroke-opacity:1;stroke-dasharray:none;stroke-dashoffset:0"
       inkscape:connector-curvature="0" />
    <path
       style="color:#000000;fill:none;stroke:#000000;stroke-width:1;stroke-linecap:butt;stroke-linejoin:miter;stroke-miterlimit:4;stroke-opacity:1;stroke-dasharray:none;stroke-dashoffset:0;marker:none;marker-start:url(#Arrow2Mstart);marker-end:url(#Arrow2Mend);visibility:visible;display:inline;overflow:visible;enable-background:accumulate"
       d="m 177.30271,402.70652 0,35.88567"
       id="path7932"
       inkscape:connector-curvature="0" />
    <text
       xml:space="preserve"
       style="font-size:12px;font-style:normal;font-variant:normal;font-weight:normal;font-stretch:normal;line-height:125%;letter-spacing:0px;word-spacing:0px;fill:#000000;fill-opacity:1;stroke:none;font-family:cmr10;-inkscape-font-specification:cmr10"
       x="196.79016"
       y="395.00372"
       id="text8302"
       sodipodi:linespacing="125%"><tspan
         sodipodi:role="line"
         id="tspan8304"
         x="196.79016"
         y="395.00372">antiphase</tspan></text>
    <text
       xml:space="preserve"
       style="font-size:12px;font-style:normal;font-variant:normal;font-weight:normal;font-stretch:normal;line-height:125%;letter-spacing:0px;word-spacing:0px;fill:#000000;fill-opacity:1;stroke:none;font-family:cmr10;-inkscape-font-specification:cmr10"
       x="196.79625"
       y="452.79193"
       id="text8306"
       sodipodi:linespacing="125%"><tspan
         sodipodi:role="line"
         id="tspan8308"
         x="196.79625"
         y="452.79193">Ossilations in</tspan><tspan
         sodipodi:role="line"
         x="196.79625"
         y="467.79193"
         id="tspan8310">normal</tspan><tspan
         sodipodi:role="line"
         x="196.79625"
         y="482.79193"
         id="tspan8312">fluid</tspan></text>
    <text
       xml:space="preserve"
       style="font-size:12px;font-style:normal;font-variant:normal;font-weight:normal;font-stretch:normal;line-height:125%;letter-spacing:0px;word-spacing:0px;fill:#000000;fill-opacity:1;stroke:none;font-family:cmr10;-inkscape-font-specification:cmr10"
       x="183.99815"
       y="408.62161"
       id="text8314"
       sodipodi:linespacing="125%"><tspan
         sodipodi:role="line"
         id="tspan8316"
         x="183.99815"
         y="408.62161">Density</tspan><tspan
         sodipodi:role="line"
         x="183.99815"
         y="423.62161"
         id="tspan3096">Temperature</tspan><tspan
         sodipodi:role="line"
         x="183.99815"
         y="438.62161"
         id="tspan8318">ossilations</tspan></text>
    <path
       style="color:#000000;fill:none;stroke:#000000;stroke-width:1;stroke-linecap:butt;stroke-linejoin:miter;stroke-miterlimit:4;stroke-opacity:1;stroke-dasharray:none;stroke-dashoffset:0;marker:none;visibility:visible;display:inline;overflow:visible;enable-background:accumulate"
       d="m 104.73588,389.90313 c 0.42789,0.15366 9.64696,7.14501 9.64696,7.14501 l 0,-7.14501 z"
       id="path3190"
       inkscape:connector-curvature="0"
       sodipodi:nodetypes="cccc" />
    <path
       style="color:#000000;fill:none;stroke:#000000;stroke-width:1;stroke-linecap:butt;stroke-linejoin:miter;stroke-miterlimit:4;stroke-opacity:1;stroke-dasharray:0.99999999, 1.99999996;stroke-dashoffset:0;marker:none;visibility:visible;display:inline;overflow:visible;enable-background:accumulate"
       d="m 117.375,393.2794 50.46806,0"
       id="path3192"
       inkscape:connector-curvature="0" />
    <path
       inkscape:connector-curvature="0"
       style="fill:none;stroke:#000000;stroke-width:1;stroke-linecap:round;stroke-linejoin:round;stroke-miterlimit:4;stroke-opacity:1;stroke-dasharray:none;stroke-dashoffset:0"
       d="m 169.00254,393.52272 c 0.71215,-1.01151 1.42431,-1.99208 2.13647,-2.37972 0.71215,-0.38764 1.42431,-0.15646 2.13647,0.55837 0.71216,0.71482 1.42431,1.87233 2.13646,2.80707 0.71216,0.93474 1.42432,1.58948 2.13648,1.59007 0.71215,4.6e-4 1.42431,-0.65579 2.13646,-1.59007 0.71216,-0.93429 1.42432,-2.09141 2.13648,-2.80707 0.71215,-0.71567 1.42431,-0.94491 2.13647,-0.55837 0.71215,0.38654 1.42431,1.36821 2.13646,2.37972"
       title="-sin(x)"
       id="path3194" />
  </g>
</svg>
